<svg id="CoachingSkills-CoachTheCoach" xmlns="http://www.w3.org/2000/svg" width="263.5" height="199.372" viewBox="0 0 263.5 199.372">
  <g id="Group_103" data-name="Group 103" transform="translate(62.521)">
    <g id="Group_95" data-name="Group 95" transform="translate(22.291)">
      <rect id="Rectangle_528" data-name="Rectangle 528" width="106.705" height="101.003" fill="#5e6c78"/>
      <rect id="Rectangle_529" data-name="Rectangle 529" width="97.746" height="92.522" transform="translate(4.48 4.241)" fill="#f7fcfc"/>
      <g id="Group_93" data-name="Group 93" transform="translate(13.946 28.283)">
        <g id="Group_90" data-name="Group 90" transform="translate(0 15.733)">
          <path id="Path_261" data-name="Path 261" d="M134.415,37.235l-20,10.015-.329.165-.289-.227L93.235,31.057,72.145,45.738l-.235.164-.272-.086-11.186-3.5-3.3,2.518V43.37l2.835-2.162.241-.182.287.089,11.2,3.5L92.924,29.854l.352-.245.34.266,20.615,16.17L133.9,36.2Z" transform="translate(-57.15 -28.048)" fill="#ffc640" fill-rule="evenodd"/>
          <g id="Group_89" data-name="Group 89" transform="translate(0.548)">
            <path id="Path_262" data-name="Path 262" d="M59.838,35.979a2.336,2.336,0,1,1-2.332,2.337A2.337,2.337,0,0,1,59.838,35.979Z" transform="translate(-57.506 -24.613)" fill="#ffc640" fill-rule="evenodd"/>
            <path id="Path_263" data-name="Path 263" d="M81.312,28.595a2.334,2.334,0,1,1-2.337,2.334A2.333,2.333,0,0,1,81.312,28.595Z" transform="translate(-45.928 -28.595)" fill="#ffc640" fill-rule="evenodd"/>
            <path id="Path_264" data-name="Path 264" d="M95.224,38.785a2.335,2.335,0,1,1-2.335,2.337A2.337,2.337,0,0,1,95.224,38.785Z" transform="translate(-38.424 -23.099)" fill="#ffc640" fill-rule="evenodd"/>
            <circle id="Ellipse_14" data-name="Ellipse 14" cx="2.335" cy="2.335" r="2.335" transform="translate(73.59 6.169)" fill="#ffc640"/>
          </g>
        </g>
        <g id="Group_92" data-name="Group 92">
          <path id="Path_265" data-name="Path 265" d="M133.615,23.193,118.076,67.105l-.454,1.282-.613-1.213L93.516,20.753,59.771,36.318l-.116.053h-.129l-2.375-.016V35.192l2.249.016,34.14-15.745.51-.236.252.5,23.132,45.707,15.085-42.63Z" transform="translate(-57.15 -17.914)" fill="#d13131" fill-rule="evenodd"/>
          <g id="Group_91" data-name="Group 91">
            <path id="Path_266" data-name="Path 266" d="M59.459,28.394a2.335,2.335,0,1,1-2.309,2.683v-.7A2.335,2.335,0,0,1,59.459,28.394Z" transform="translate(-57.15 -12.97)" fill="#d13131" fill-rule="evenodd"/>
            <path id="Path_267" data-name="Path 267" d="M81.74,18.374A2.335,2.335,0,1,1,79.4,20.711,2.335,2.335,0,0,1,81.74,18.374Z" transform="translate(-45.148 -18.374)" fill="#d13131" fill-rule="evenodd"/>
            <path id="Path_268" data-name="Path 268" d="M97.141,48.433a2.335,2.335,0,1,1-2.334,2.335A2.335,2.335,0,0,1,97.141,48.433Z" transform="translate(-36.841 -2.163)" fill="#d13131" fill-rule="evenodd"/>
            <path id="Path_269" data-name="Path 269" d="M107.275,19.977a2.336,2.336,0,1,1-2.335,2.335A2.335,2.335,0,0,1,107.275,19.977Z" transform="translate(-31.377 -17.509)" fill="#d13131" fill-rule="evenodd"/>
          </g>
        </g>
      </g>
      <g id="Group_94" data-name="Group 94" transform="translate(10.231 19.408)">
        <path id="Path_270" data-name="Path 270" d="M57.74,18.36V77.607h.59V18.36a8,8,0,0,1,2.855.685l-3.149-6.437-3.151,6.437A7.993,7.993,0,0,1,57.74,18.36Z" transform="translate(-54.656 -12.608)" fill="#a33838" fill-rule="evenodd"/>
        <path id="Path_271" data-name="Path 271" d="M133.224,53.314H54.736v.59h78.488a7.936,7.936,0,0,1-.685,2.857l6.437-3.151-6.437-3.151A7.928,7.928,0,0,1,133.224,53.314Z" transform="translate(-54.736 7.805)" fill="#a33838" fill-rule="evenodd"/>
      </g>
    </g>
    <g id="Group_102" data-name="Group 102" transform="translate(0 16.226)">
      <g id="Group_96" data-name="Group 96" transform="translate(37.843 29.545)">
        <path id="Path_272" data-name="Path 272" d="M60.493,30.609l1.6-.316.508.1.231,1.447-.57,1.462-.793,2.266-1.144,1.091s-1.495-.351-1.585-.414a10.661,10.661,0,0,1-.2-2.143C58.587,33.99,60.477,30.535,60.493,30.609Z" transform="translate(-58.013 -26.54)" fill="#e0aa5e" fill-rule="evenodd"/>
        <path id="Path_273" data-name="Path 273" d="M60.225,31.377l.107-.086.619-.2.045.774-.908,1.281-.471-.663Z" transform="translate(-57.425 -26.109)" fill="#cc964a" fill-rule="evenodd"/>
        <path id="Path_274" data-name="Path 274" d="M58.727,34.317a9.162,9.162,0,0,1,.7-2.135,4.209,4.209,0,0,1,.845-.9c.349-.354.73-.856,1.37-1.5,1.248-1.253,1.909-2.093,2.234-1.9.259.149.057.831-.919,2.12l-1.649,2.183c-.051.322-.2.642-.265,1.021s-.145.877-.217,1.316l-1.556,3.944-1.078-.371C58.382,36.589,58.487,35.59,58.727,34.317Z" transform="translate(-58.193 -27.855)" fill="#f0c17d" fill-rule="evenodd"/>
        <path id="Path_275" data-name="Path 275" d="M60.213,34.128l1.8-1.844c.745-1.094.99-2.206,1.572-2.483.382-.182.882.393.576,1.136-.343.542-1,2.064-1.19,2.431-.373.719-.1,1.056-.514,2.044a3.95,3.95,0,0,1-1.847,2.18l-2.391,1.6.511-1.859S60.261,34.125,60.213,34.128Z" transform="translate(-58.18 -26.823)" fill="#f0c17d" fill-rule="evenodd"/>
      </g>
      <path id="Path_276" data-name="Path 276" d="M46.742,10.541c2.925,0,5.294,2.084,5.294,4.658s-2.369,4.658-5.294,4.658-5.3-2.086-5.3-4.658S43.818,10.541,46.742,10.541Z" transform="translate(-29.381 -10.541)" fill="#451903" fill-rule="evenodd"/>
      <g id="Group_99" data-name="Group 99" transform="translate(7.192 105.755)">
        <g id="Group_97" data-name="Group 97" transform="translate(11.086)">
          <path id="Path_277" data-name="Path 277" d="M45.52,69.249l.546,11.677c.328,5.618-.8,12.789-.546,18.111.34,7.189,1.565,14.8,1.231,21.974-.038.791-.054,2.249-.174,3.49-.112,1.151-.386,2.1-.369,2.654l1.39,3.457,4.384,1.236.9-4.907a11.98,11.98,0,0,0-.577-2.6c-.139-.477-.259-.994-.348-1.475a29.3,29.3,0,0,1,.132-9.7c.834-5.658,2.258-12.134,2.483-15.95.256-4.362-.337-8.839-.9-15.889l1.065-12.179Z" transform="translate(-45.483 -69.147)" fill="#f0c17d" fill-rule="evenodd"/>
          <path id="Path_278" data-name="Path 278" d="M46.241,106.344l-.528,4.141,3.743,4.272,2.372-.015L54,110.736l-1.5-5.055-.854,5.153-2.635.041Z" transform="translate(-45.358 -49.444)" fill="#29343d" fill-rule="evenodd"/>
        </g>
        <g id="Group_98" data-name="Group 98">
          <path id="Path_279" data-name="Path 279" d="M47.5,69.249l-.548,11.677c-.328,5.618.8,12.789.548,18.111-.342,7.189-1.567,14.8-1.23,21.974.035.791.051,2.249.172,3.49.111,1.151.385,2.1.369,2.654l-1.39,3.457-4.385,1.236-.9-4.907a12,12,0,0,1,.579-2.6c.137-.477.257-.994.346-1.475a29.26,29.26,0,0,0-.132-9.7c-.836-5.658-2.257-12.133-2.481-15.95-.256-4.362.337-8.839.9-15.889L38.281,69.147Z" transform="translate(-38.281 -69.147)" fill="#ffdba7" fill-rule="evenodd"/>
          <path id="Path_280" data-name="Path 280" d="M46.437,106.344l.529,4.141-3.745,4.272-2.372-.015-2.175-4.006,1.5-5.055.854,5.153,2.635.041Z" transform="translate(-38.069 -49.444)" fill="#44515c" fill-rule="evenodd"/>
        </g>
      </g>
      <path id="Path_281" data-name="Path 281" d="M49.026,48.811l-.129-.445h8.956c1.056-.394,2.077-3.647,3.056-4.178a14.981,14.981,0,0,1,.3-1.778,13.187,13.187,0,0,0,1.255-2.528c.374-1.4.342-3.471-1.719-3.9-3.53-.733-4.23.723-6.711-2.461-1-1.279-1.091-4.131-.385-6.838H45.276c.707,2.706.613,5.558-.385,6.838-1,1.321-5.115,1.6-5.4,1.641a3.458,3.458,0,0,0-2.86,1.807c-1.667,3.585.95,7.806,1.783,11.4Z" transform="translate(-32.271 1.061)" fill="#ffdba7" fill-rule="evenodd"/>
      <path id="Path_282" data-name="Path 282" d="M59.612,43.828a6.259,6.259,0,0,1,1.515-2.167,14.982,14.982,0,0,1,.3-1.778,13.187,13.187,0,0,0,1.255-2.528c.374-1.4.342-3.471-1.719-3.9-3.269-.679-4.113.52-6.193-1.833l-4.893,7.321L44.7,31.373a8.067,8.067,0,0,1-2.977,1l-.02-.035c-1.375.214-2.882.286-3.017.306a3.463,3.463,0,0,0-2.862,1.806c.226.463.42.919.586,1.367-.382,2.064.317,4.273,1.067,6.414.026.9.032,1.783.072,2.665l-.2.186,3.262,14.092c-1.193,2.831-5,10.587-4.927,13.261a147.293,147.293,0,0,0,3.543,25.928H59.112a147.632,147.632,0,0,0,3.545-25.928C62.731,69.759,58.091,62,56.9,59.173l4.091-14.092Z" transform="translate(-32.49 6.323)" fill="#e9f5f5" fill-rule="evenodd"/>
      <path id="Path_283" data-name="Path 283" d="M42.057,26.685a14.046,14.046,0,0,1,.453,3.083c1.983,1.69,5.32,2.892,8.232,3.656-.928-1.322-1-4.1-.312-6.739Z" transform="translate(-29.052 0.761)" fill="#f0c17d" fill-rule="evenodd"/>
      <path id="Path_284" data-name="Path 284" d="M55.431,23.976c.713-1.058,1.55-.332,1.29.959-.212,1.054-.7,2.252-.968,3.453-.183.819-.477,1.4-1.191,1.256a10.062,10.062,0,0,1-1.273,2.828,11.689,11.689,0,0,1-2.383,2.86c-1.3,1.156-2.157,1.747-2.992,1.747-.814,0-1.6-.562-3.065-1.832a12.27,12.27,0,0,1-1.986-2.3,10.325,10.325,0,0,1-1.55-3.291c-.667.1-.948-.473-1.125-1.267-.271-1.2-.756-2.4-.968-3.453-.232-1.153.411-1.855,1.061-1.238a18.467,18.467,0,0,1,.237-3.585c.668-4.361,2.9-6.17,7.453-6.183,4.115-.014,6.662,2.928,7.336,6.8A13.8,13.8,0,0,1,55.431,23.976Z" transform="translate(-30.609 -8.714)" fill="#ffdba7" fill-rule="evenodd"/>
      <path id="Path_285" data-name="Path 285" d="M40.726,27.121c.745-4.365,9.453-3.019,11.379-9.21,2.649,1.205,2.854,6.431,2.88,9.511,2.584-6.678.931-14.787-7.078-14.723S37.661,21.179,40.726,27.121Z" transform="translate(-30.481 -9.377)" fill="#632404" fill-rule="evenodd"/>
      <path id="Path_286" data-name="Path 286" d="M54.389,32.555c.6.052,1.028.077,1.1.088a3.463,3.463,0,0,1,2.862,1.806c-.069.111-.134.223-.2.334,1.1,2.837-.311,6.037-1.318,9-.018.4-.054.808-.109,1.207l.1.094L53.551,59.173C54.746,62,58.568,69.76,58.493,72.434a147.552,147.552,0,0,1-3.542,25.928H44.665l0-52.226L44.8,39.02l5.351-7.647A10.8,10.8,0,0,0,54.389,32.555Z" transform="translate(-27.646 6.323)" fill="#d8e6e8" fill-rule="evenodd"/>
      <path id="Path_287" data-name="Path 287" d="M56.21,35.487l2.649,17.176c.262,1.986-.925,4.758-1.752,5.221-.727.408-2.9-.55-3.676-2.5L51.187,44.069c-.639-4.532,2.007-10.84,3.673-10.832C55.587,33.24,56.045,35.09,56.21,35.487Z" transform="translate(-24.181 5.851)" fill="#d8e6e8" fill-rule="evenodd"/>
      <path id="Path_288" data-name="Path 288" d="M64.842,34.93l-3.933-.91C59.614,37.567,55.118,47.2,53.556,51.3a8.788,8.788,0,0,0-.86,4.022,4.07,4.07,0,0,0,1.943,2.685c1.37.523,3.565-.839,4.636-3.594Z" transform="translate(-23.334 6.395)" fill="#d8e6e8" fill-rule="evenodd"/>
      <path id="Path_289" data-name="Path 289" d="M42.056,31.279l-1.757.84,3.615,7.89,2.265-2.877Z" transform="translate(-30 4.023)" fill="#f7fcfc" fill-rule="evenodd"/>
      <path id="Path_290" data-name="Path 290" d="M49.714,31.329l1.756.839L47.856,40.06l-2.265-2.877Z" transform="translate(-27.146 4.058)" fill="#e9f5f5" fill-rule="evenodd"/>
      <path id="Path_291" data-name="Path 291" d="M40.6,49.461c-1.191,2.832-5,10.589-4.927,13.261A147.444,147.444,0,0,0,39.217,88.65H59.1c2.508-11.217,4.781-23.079,3.545-25.928L56.888,49.461Z" transform="translate(-32.496 18.453)" fill="#084478" fill-rule="evenodd"/>
      <path id="Path_292" data-name="Path 292" d="M51.759,49.467C52.952,52.3,56.774,60.056,56.7,62.729a147.315,147.315,0,0,1-3.545,25.928H48.6l4.15-26.2L47.963,49.449Z" transform="translate(-25.867 18.445)" fill="#05345e" fill-rule="evenodd"/>
      <g id="Group_101" data-name="Group 101" transform="translate(0 39.802)">
        <path id="Path_293" data-name="Path 293" d="M36.077,35.291,33.822,52.454c-.249,1.91.4,4.233,1.2,4.679.7.391,3.523-.628,4.27-2.5l1.619-11.086c.617-4.359-1.929-10.427-3.533-10.421C36.677,33.128,36.236,34.908,36.077,35.291Z" transform="translate(-33.523 -33.125)" fill="#e9f5f5" fill-rule="evenodd"/>
        <g id="Group_100" data-name="Group 100" transform="translate(0 17.273)">
          <path id="Path_294" data-name="Path 294" d="M39.708,68.293a5.8,5.8,0,0,1,.831,1.713,4.464,4.464,0,0,1,.04,1.956,10.273,10.273,0,0,0-.468,2.806l-4.658.577c-.51-1.047-.9-1.869-.9-1.9a5.4,5.4,0,0,1,.18-1.767,19.921,19.921,0,0,1,.828-1.929c.694-1.311,1.005-1.1.871-2.748-.292-3.62-2.3-12.491-2.7-16.694a8.443,8.443,0,0,1,.232-3.953,3.923,3.923,0,0,1,2.489-1.992c1.4-.134,2.277,1.793,2.566,4.624C39.4,52.667,38.484,65.568,39.708,68.293Z" transform="translate(-33.609 -44.342)" fill="#ffdba7" fill-rule="evenodd"/>
          <path id="Path_295" data-name="Path 295" d="M40.011,68.385l-3.879-.165c-.292-3.62-1.995-13.708-2.394-17.91a8.464,8.464,0,0,1,.232-3.953,3.923,3.923,0,0,1,2.489-1.992c1.4-.134,2.748.357,3.037,3.186Z" transform="translate(-33.608 -44.346)" fill="#e9f5f5" fill-rule="evenodd"/>
        </g>
      </g>
    </g>
  </g>
  <g id="Group_125" data-name="Group 125" transform="translate(0 53.143)">
    <g id="Group_104" data-name="Group 104" transform="translate(0 57.77)">
      <path id="Path_296" data-name="Path 296" d="M0,61.957H7.716l6.635,51.069-10.1.543Z" transform="translate(0 -61.957)" fill="#9e9e9e" fill-rule="evenodd"/>
      <rect id="Rectangle_530" data-name="Rectangle 530" width="4.588" height="33.944" transform="translate(20.384 50.289)" fill="#9e9e9e"/>
      <rect id="Rectangle_531" data-name="Rectangle 531" width="37.324" height="8.132" rx="2.303" transform="translate(4.015 43.479)" fill="#9e9e9e"/>
      <rect id="Rectangle_532" data-name="Rectangle 532" width="19.553" height="4.26" rx="1.206" transform="translate(12.901 81.586)" fill="#b8b8b8"/>
      <path id="Path_297" data-name="Path 297" d="M0,61.957H1.586l8.671,51.528-6.005.084Z" transform="translate(0 -61.957)" fill="#b8b8b8" fill-rule="evenodd"/>
    </g>
    <g id="Group_105" data-name="Group 105" transform="translate(222.161 57.77)">
      <path id="Path_298" data-name="Path 298" d="M161.133,61.957h-7.715l-6.637,51.069,10.1.543Z" transform="translate(-119.795 -61.957)" fill="#9e9e9e" fill-rule="evenodd"/>
      <rect id="Rectangle_533" data-name="Rectangle 533" width="4.588" height="33.944" transform="translate(16.369 50.289)" fill="#9e9e9e"/>
      <rect id="Rectangle_534" data-name="Rectangle 534" width="37.324" height="8.132" rx="2.303" transform="translate(0 43.479)" fill="#9e9e9e"/>
      <rect id="Rectangle_535" data-name="Rectangle 535" width="19.554" height="4.26" rx="1.206" transform="translate(8.885 81.586)" fill="#b8b8b8"/>
      <path id="Path_299" data-name="Path 299" d="M159.7,61.957h-1.586l-8.671,51.528,6.005.084Z" transform="translate(-118.36 -61.957)" fill="#b8b8b8" fill-rule="evenodd"/>
    </g>
    <path id="Path_300" data-name="Path 300" d="M124.863,55.645c-.172,2.82-1.231,14.4.163,16.965l2.281,4.2,3.573-1.376c.239-.308.292-.356.332-.645.262-1.864.42-6.2,1.158-11.246.825-5.655,1.395-9.062-1.607-11.525C128.973,50.547,125.194,50.242,124.863,55.645Z" transform="translate(86.22 -21.812)" fill="#accce8" fill-rule="evenodd"/>
    <path id="Path_301" data-name="Path 301" d="M149.7,55.269h-7.829l-6.733,51.822,10.249.55Z" transform="translate(96.088 -16.999)" fill="#b8b8b8" fill-rule="evenodd"/>
    <g id="Group_106" data-name="Group 106" transform="translate(186.142 86.224)">
      <path id="Path_302" data-name="Path 302" d="M111.9,91.714c2.623,9.213,7.439,23.482,7.332,27.366-.112,3.984-9.387,5.594-9.06,8.728a23.592,23.592,0,0,0,7.141.214c2.277-.406,3.411-1.367,5.374-1.468l.135,1.116,3.39-.155-.125-2.255c.009-4.281-1.778-5.348-2.089-7.393a157.983,157.983,0,0,1-1.151-20.935L116.427,85.7l-6.8-5.254C109.209,82.783,110.785,87.812,111.9,91.714Z" transform="translate(-109.557 -80.442)" fill="#f0c17d" fill-rule="evenodd"/>
      <path id="Path_303" data-name="Path 303" d="M112.654,110.395c-1.756.854-2.822,1.94-2.7,3.06a23.642,23.642,0,0,0,7.141.214c2.277-.406,3.411-1.367,5.374-1.468l.135,1.116,3.39-.155-.042-2.252a6.568,6.568,0,0,0-.565-3.853C124.01,109.246,116,111.275,112.654,110.395Z" transform="translate(-109.347 -66.089)" fill="#032747" fill-rule="evenodd"/>
    </g>
    <path id="Path_304" data-name="Path 304" d="M111.951,91.782l6.619,28.765,5.532-1.215A179.239,179.239,0,0,1,122.9,97l-6.162-12.533-7.012-4.15a2.519,2.519,0,0,0-.26,1.355C109.616,84.335,111.023,88.521,111.951,91.782Z" transform="translate(76.36 2.283)" fill="#44515c" fill-rule="evenodd"/>
    <rect id="Rectangle_536" data-name="Rectangle 536" width="4.654" height="34.444" transform="translate(220.454 98.504)" fill="#9e9e9e"/>
    <path id="Rectangle_537" data-name="Rectangle 537" d="M2.337,0h33.2a2.336,2.336,0,0,1,2.336,2.336v3.58a2.337,2.337,0,0,1-2.337,2.337H2.336A2.336,2.336,0,0,1,0,5.917V2.337A2.337,2.337,0,0,1,2.337,0Z" transform="translate(203.844 85.706)" fill="#9e9e9e"/>
    <path id="Rectangle_538" data-name="Rectangle 538" d="M1.224,0H18.617a1.224,1.224,0,0,1,1.224,1.224V3.1a1.225,1.225,0,0,1-1.225,1.225H1.225A1.225,1.225,0,0,1,0,3.1V1.224A1.224,1.224,0,0,1,1.224,0Z" transform="translate(212.859 130.262)" fill="#b8b8b8"/>
    <g id="Group_107" data-name="Group 107" transform="translate(189.348 88.122)">
      <path id="Path_305" data-name="Path 305" d="M113.211,91.66c2.625,9.213,7.441,23.484,7.332,27.364-.111,3.984-9.385,5.6-9.06,8.728a23.591,23.591,0,0,0,7.141.215c2.278-.408,3.413-1.367,5.374-1.468l.135,1.114,3.391-.152-.126-2.383c.009-4.279-1.776-5.221-2.086-7.269a157.416,157.416,0,0,1-1.153-20.931l-6.414-11.237-6.1-3.967C111.223,84.013,112.1,87.76,113.211,91.66Z" transform="translate(-111.472 -81.675)" fill="#ffdba7" fill-rule="evenodd"/>
      <path id="Path_306" data-name="Path 306" d="M114.179,110.792c-1.755.856-2.82,1.94-2.7,3.059a23.591,23.591,0,0,0,7.141.215c2.278-.408,3.413-1.367,5.374-1.468l.135,1.114,3.39-.152-.042-2.255a6.559,6.559,0,0,0-.563-3.853C125.536,109.646,117.526,111.673,114.179,110.792Z" transform="translate(-111.473 -67.773)" fill="#05345e" fill-rule="evenodd"/>
    </g>
    <path id="Path_307" data-name="Path 307" d="M137.831,72.4l15.452.229c3.189,9.879,2.038,14.634-1.605,17.325-3.4,2.509-24.019.162-30.566,2.246-3.862-6.163-6.992-3.513-11.482-7.6,8.332-4.305,17.645-6.722,26.4-8.948Z" transform="translate(82.33 -5.926)" fill="#44515c" fill-rule="evenodd"/>
    <path id="Path_308" data-name="Path 308" d="M143.612,72.151l8.622.611c3.189,9.879,2.038,14.634-1.605,17.325-3.4,2.509-24.937,1.282-31.483,3.365-.979-.639-9.119-6.634-7.312-7.37,12.872-5.235,23.3-6.277,27.564-7.361Z" transform="translate(83.378 -6.002)" fill="#5e6c78" fill-rule="evenodd"/>
    <path id="Path_309" data-name="Path 309" d="M127.591,49.63c1.181,3.091.759,7.082.245,10.6l6.531-.888.26-10.892,1-4.967-6.076,4.256Z" transform="translate(92.017 -29.691)" fill="#f0c17d" fill-rule="evenodd"/>
    <path id="Path_310" data-name="Path 310" d="M127.273,73.542l3.166,8.163-1.273,5.412,18.663,4.225c-.868-2.862-2.15-5.965-2.215-9.841-.168-10,1.732-20.714-.827-24.526-2.264-3.373-6.357-6.1-7.792-8.739l-5.731,9.744-.276-6.384c-1.619.349-2.892.4-3.434,1.094-1.339,1.7-1.37,6.978-2.332,9.468-1.347,3.488-2.086,3.676-2.107,5.518C123.08,70.828,124.664,71.625,127.273,73.542Z" transform="translate(89.602 -23.383)" fill="#c6def2" fill-rule="evenodd"/>
    <path id="Path_311" data-name="Path 311" d="M133.5,48.381l1.87,1.493-4,8.5-1.718-4.009Z" transform="translate(93.131 -24.305)" fill="#e3effa" fill-rule="evenodd"/>
    <path id="Path_312" data-name="Path 312" d="M128.8,49.484l.224,4.986-1.9.334Z" transform="translate(91.761 -23.601)" fill="#dfe4e8" fill-rule="evenodd"/>
    <path id="Path_313" data-name="Path 313" d="M128.683,55.322c-1.144.337-2.056.448-2.44-.126a3.593,3.593,0,0,1-.373-2.023c-.011-.165-.217-.289-.508-.639-.579-.817.459-1.056,1.074-1.321-1.1.025-1.641.088-1.706-.921l.342-.254a2.014,2.014,0,0,0-.028-1.179c-.168-.56-1.35-.785-1.147-1.816a6.007,6.007,0,0,0,1.995-2.818c.374-1.251-.474-2.127.339-4.522a6.521,6.521,0,0,1,4.175-4.159c3.556-1.193,9.228-.971,11.271,1.533,5.628,6.9-4.429,15.162-4.581,15.264C134.885,53.815,131.7,54.432,128.683,55.322Z" transform="translate(90.013 -34.352)" fill="#ffdba7" fill-rule="evenodd"/>
    <path id="Path_314" data-name="Path 314" d="M126.907,36.761c.871-1.376,10.084-4.921,14.362,1.415,3.3,5.694,1.519,13.363-5.534,13.72-2.061-.633-1.909-4.586-4.125-8.7C130.5,41.149,129.77,38.5,126.907,36.761Z" transform="translate(91.648 -34.524)" fill="#632404" fill-rule="evenodd"/>
    <path id="Path_315" data-name="Path 315" d="M127.851,36.019c-2.078.557-2.848,3.008-2.621,6.479,1.964.83,5.412.546,7.706.245C132.609,39.081,128.9,36.211,127.851,36.019Z" transform="translate(90.722 -33.718)" fill="#632404" fill-rule="evenodd"/>
    <g id="Group_108" data-name="Group 108" transform="translate(217.174 7.952)">
      <path id="Path_316" data-name="Path 316" d="M141.209,42.592c-.6,9.228-6.979,11.62-8.757,14.256-.354-.947.413-9.433-2.544-17.157l8.451.508Z" transform="translate(-123.908 -39.69)" fill="#632404" fill-rule="evenodd"/>
      <path id="Path_317" data-name="Path 317" d="M126.684,70.532c-3.654-12.71,8.652-14.787,10.517-26.388C136.939,61.067,128.83,58.635,126.684,70.532Z" transform="translate(-126.01 -37.288)" fill="#632404" fill-rule="evenodd"/>
    </g>
    <path id="Path_318" data-name="Path 318" d="M112.656,91.991l7.433,28.791,6.294-1.011-2.27-22.462L118.92,85.972,112.7,81.063C109.376,82.4,111.769,88.873,112.656,91.991Z" transform="translate(77.487 6.117)" fill="#5e6c78" fill-rule="evenodd"/>
    <path id="Path_319" data-name="Path 319" d="M47.584,122.209c-3.847,2.026-11.14-.045-14.942-.693-1.307.756-3.373.012-4.155-.208-1.729-.482-1.3-4.707-.745-7.236.445-2.029.091-3.664.091-5.931l7.275-1.308c-.4,3.7-.8,4.969.117,6.625,1.884,3.416,5.318,3.731,8.052,4.506C47.669,119.207,48.326,121.35,47.584,122.209Z" transform="translate(19.131 20.015)" fill-rule="evenodd"/>
    <path id="Path_320" data-name="Path 320" d="M52.251,101.726l-3.858,29.7-12.342-1.735,4.05-29.508c-7.138,0-24.533-.727-28.339-2.831-3.754-2.075-4.175-6.765-1.556-17.805L14.837,78A93.617,93.617,0,0,0,26.931,84.3c6.1,2.785,11.882,4.038,19.606,6.781C53.728,93.631,53.275,93.836,52.251,101.726Z" transform="translate(4.604 4.467)" fill="#202930" fill-rule="evenodd"/>
    <path id="Path_321" data-name="Path 321" d="M46.338,122.451c-3.847,2.024-11.142-.045-14.942-.693-1.307.754-4.187.011-4.969-.208-1.729-.482-1.3-4.709-.743-7.238.443-2.029.089-3.664.089-5.931l8.974-1.025c-.4,3.7-.8,4.97.115,6.627,1.886,3.416,4.435,3.448,7.169,4.221C46.422,119.448,47.081,121.591,46.338,122.451Z" transform="translate(17.699 20.297)" fill="#212121" fill-rule="evenodd"/>
    <path id="Path_322" data-name="Path 322" d="M50.719,102.067l-3.858,29.7L34.52,130.032l4.05-29.507c-7.138,0-24.532-.727-28.339-2.831-3.753-2.075-4.175-6.767-1.555-17.807L13.3,78.345a93.694,93.694,0,0,0,12.1,6.29c6.1,2.785,11.88,4.039,19.6,6.782C52.2,93.971,51.743,94.175,50.719,102.067Z" transform="translate(3.778 4.651)" fill="#29343d" fill-rule="evenodd"/>
    <path id="Path_323" data-name="Path 323" d="M18.97,71.806c.554,3.4,1.27,6.835,1.883,9.562,2.882,12.8,10.878-1.339,9.815-2.708-.925-3.106-.573-6.833-1.473-14.422-1.013-8.525-2.063-12.284-7.028-11.1C15.6,54.7,18.394,68.278,18.97,71.806Z" transform="translate(9.646 -20.058)" fill="#29343d" fill-rule="evenodd"/>
    <path id="Path_324" data-name="Path 324" d="M17.656,48.494c-1.3,2.617-.944,4.218-3.776,5.494-4.556,2.05-5.7,3.516-6.984,5.759C2.991,66.572,10.215,80.941,10.347,92.4l21.458-1.875c-.448-8.559,5.9-29.367-.152-35.506L24.37,49.707Z" transform="translate(3.095 -23.139)" fill="#44515c" fill-rule="evenodd"/>
    <path id="Path_325" data-name="Path 325" d="M18.222,47.2l-4.609,1.839-.369,1.846.731,8.834,3.868,29.889L22.7,90.6l1.139-22.834-.117-7.415c-.065-4.21-.67-6.662-1.515-8.2C21.441,50.758,20.56,50.259,18.222,47.2Z" transform="translate(7.143 -27.685)" fill="#c6def2" fill-rule="evenodd"/>
    <path id="Path_326" data-name="Path 326" d="M17.3,49.067c-.874,1.93-.874,3.34-3.359,4.459C9.386,55.58,8.1,56.956,6.817,59.2,3.665,64.708,7.656,78.2,8.506,87.328c.2,2.12-.536,13.752-.817,16.645,5.971,1.187,12.133.751,18.593,0C26.16,96.491,24.569,75.585,23,68.251A69.575,69.575,0,0,0,19.524,57.7a32.858,32.858,0,0,1-2.178-7.524A8.107,8.107,0,0,1,17.3,49.067Z" transform="translate(3.033 -22.045)" fill="#44515c" fill-rule="evenodd"/>
    <path id="Path_327" data-name="Path 327" d="M13.439,51.674l.5,3,5.348,6.468,1.442-1.367c2.281-5.278,1.976-4.958,2.48-10.8L15,44.758A39.332,39.332,0,0,1,13.439,51.674Z" transform="translate(7.248 -29.005)" fill="#f0c17d" fill-rule="evenodd"/>
    <path id="Path_328" data-name="Path 328" d="M18.069,54.794l-.72,4.078a12.488,12.488,0,0,1,.891,2.106l-.562,4.358c.5,5.414,1.495,11.6,2.224,16.153l.519.256c.185-5.949.1-10.61.189-16.651L20.08,61.26c.135-1.565.417-2.709.42-2.909.014-.884-1.085-2.5-1.995-3.728Z" transform="translate(9.356 -19.042)" fill="#8cb2d4" fill-rule="evenodd"/>
    <path id="Path_329" data-name="Path 329" d="M20.388,57.91c-.129,2.321-.162,4.5-.8,6.04-4.216-3.9-6.328-10.475-6.183-15.21C14.284,51.625,14.638,54.352,20.388,57.91Z" transform="translate(7.228 -23.912)" fill="#e3effa" fill-rule="evenodd"/>
    <path id="Path_330" data-name="Path 330" d="M17.854,56.618c.985-.974,2.016-4.575,2.435-5.521l.662,2.8a19.459,19.459,0,0,1-.668,6.553A14.106,14.106,0,0,0,17.854,56.618Z" transform="translate(9.629 -22.318)" fill="#e3effa" fill-rule="evenodd"/>
    <g id="Group_111" data-name="Group 111" transform="translate(211.891 83.756)">
      <g id="Group_109" data-name="Group 109" transform="translate(2.427 12.565)">
        <path id="Path_331" data-name="Path 331" d="M126.5,98.348c2.585,9.079,7.332,23.142,7.224,26.967-.109,3.925-9.25,5.515-8.928,8.6a23.212,23.212,0,0,0,7.036.212c2.244-.4,3.362-1.348,5.3-1.447l.132,1.1,3.342-.152-.122-2.223c.008-4.219-1.753-5.269-2.058-7.287a155.25,155.25,0,0,1-1.136-20.628L130.96,92.416,124.221,87C123.81,89.308,125.4,94.5,126.5,98.348Z" transform="translate(-124.155 -87.002)" fill="#f0c17d" fill-rule="evenodd"/>
        <path id="Path_332" data-name="Path 332" d="M127.231,116.674c-1.73.844-2.782,1.913-2.66,3.016a23.225,23.225,0,0,0,7.038.212c2.244-.4,3.362-1.347,5.3-1.447l.132,1.1,3.342-.152-.043-2.22a6.47,6.47,0,0,0-.556-3.8C138.42,115.544,130.527,117.542,127.231,116.674Z" transform="translate(-123.936 -72.774)" fill="#032747" fill-rule="evenodd"/>
      </g>
      <g id="Group_110" data-name="Group 110" transform="translate(0.729 12.565)">
        <path id="Path_333" data-name="Path 333" d="M125.391,98.348c2.586,9.079,7.333,23.142,7.227,26.967-.111,3.925-9.25,5.515-8.93,8.6a23.212,23.212,0,0,0,7.036.212c2.244-.4,3.363-1.348,5.3-1.447l.134,1.1,3.342-.152-.123-2.346c.008-4.219-1.752-5.146-2.058-7.164a155.25,155.25,0,0,1-1.134-20.628l-6.322-11.075L123.119,87C122.7,89.308,124.3,94.5,125.391,98.348Z" transform="translate(-123.051 -87.002)" fill="#ffdba7" fill-rule="evenodd"/>
        <path id="Path_334" data-name="Path 334" d="M126.125,116.674c-1.73.844-2.778,1.913-2.657,3.016a23.212,23.212,0,0,0,7.036.212c2.244-.4,3.363-1.347,5.3-1.447l.134,1.1,3.342-.152-.042-2.22a6.469,6.469,0,0,0-.556-3.8C137.317,115.544,129.424,117.542,126.125,116.674Z" transform="translate(-122.832 -72.774)" fill="#05345e" fill-rule="evenodd"/>
      </g>
      <path id="Path_335" data-name="Path 335" d="M148.928,78.839l15.228.225c3.145,9.735,2.009,14.422-1.584,17.074-3.348,2.472-22.668,5.377-29.119,7.43-3.805-6.073-6.45-8.477-10.875-12.505a110.933,110.933,0,0,1,24.57-9.019Z" transform="translate(-122.578 -78.839)" fill="#05345e" fill-rule="evenodd"/>
      <path id="Path_336" data-name="Path 336" d="M157.589,79.087l4.384-.1c3.145,9.735,2.009,14.422-1.584,17.074-3.348,2.472-22.668,5.377-29.119,7.43a49.317,49.317,0,0,0-4.643-6.385c13.212-6.479,23.989-10.244,28.316-11.343Z" transform="translate(-120.394 -78.76)" fill="#032747" fill-rule="evenodd"/>
    </g>
    <rect id="Rectangle_539" data-name="Rectangle 539" width="70.082" height="31.314" transform="translate(100.466 84)" fill="#c9c9cb"/>
    <g id="Group_114" data-name="Group 114" transform="translate(98.796 93.628)">
      <g id="Group_112" data-name="Group 112" transform="translate(66.966)">
        <rect id="Rectangle_540" data-name="Rectangle 540" width="6.474" height="52.601" fill="#c9c9cb"/>
        <rect id="Rectangle_541" data-name="Rectangle 541" width="3.235" height="52.601" transform="translate(3.238)" fill="#b8b8b8"/>
      </g>
      <g id="Group_113" data-name="Group 113">
        <rect id="Rectangle_542" data-name="Rectangle 542" width="6.473" height="52.601" fill="#c9c9cb"/>
        <rect id="Rectangle_543" data-name="Rectangle 543" width="3.236" height="52.601" transform="translate(3.236)" fill="#b8b8b8"/>
      </g>
    </g>
    <path id="Path_337" data-name="Path 337" d="M36.526,65.913h177.61l26.769,24.519H13.959Z" transform="translate(7.528 -10.523)" fill="#c9c9cb" fill-rule="evenodd"/>
    <path id="Path_338" data-name="Path 338" d="M125.571,65.269l.388.311,2.183,4.448,8.732-.89-1.12-6.058Z" transform="translate(90.927 -13.603)" fill="#c6def2" fill-rule="evenodd"/>
    <rect id="Rectangle_544" data-name="Rectangle 544" width="226.754" height="7.614" transform="translate(21.679 81.813)" fill="#dadada"/>
    <g id="Group_116" data-name="Group 116" transform="translate(185.993 52.188)">
      <g id="Group_115" data-name="Group 115" transform="translate(0 0.868)">
        <path id="Path_339" data-name="Path 339" d="M113.819,66.508c-.311.291-4.055,2.17-3.653,2.113,4.164-.6,4.19-.449,5.542.32,1.722.982,3.363.342,4.93-.534,0,0,.126-1.792.088-1.915a12.726,12.726,0,0,0-2.327-.962C118.259,65.547,113.742,66.466,113.819,66.508Z" transform="translate(-108.189 -65.102)" fill="#f0c17d" fill-rule="evenodd"/>
        <path id="Path_340" data-name="Path 340" d="M117.85,65.311a10.715,10.715,0,0,0-2.629.045,4.993,4.993,0,0,0-1.3.634c-.516.269-1.207.519-2.143,1.013-1.835.964-3,1.41-2.9,1.838.079.342.91.351,2.688-.294l3.008-1.088c.377.055.788-.006,1.233.057s1.031.142,1.547.212l4.943-.376-.043-1.331C120.51,65.711,119.357,65.483,117.85,65.311Z" transform="translate(-108.871 -65.252)" fill="#f0c17d" fill-rule="evenodd"/>
      </g>
      <path id="Path_341" data-name="Path 341" d="M116.218,65.475l-.129,4.533,17.9-.028L130.9,64.688A90.746,90.746,0,0,1,116.218,65.475Z" transform="translate(-104.978 -64.688)" fill="#accce8" fill-rule="evenodd"/>
    </g>
    <g id="Group_118" data-name="Group 118" transform="translate(183.948 52.525)">
      <path id="Path_342" data-name="Path 342" d="M129.039,67.855H104.425l1.5,5.07H130.54Z" transform="translate(-104.425 -63.088)" fill="#fff9f0" fill-rule="evenodd"/>
      <g id="Group_117" data-name="Group 117" transform="translate(17.076)">
        <path id="Path_343" data-name="Path 343" d="M121.7,64.843h0a.375.375,0,0,0-.53.055l-5.283,6.464-.366,1.048.951-.573,5.283-6.465A.374.374,0,0,0,121.7,64.843Z" transform="translate(-115.518 -64.758)" fill-rule="evenodd"/>
        <path id="Path_344" data-name="Path 344" d="M125.458,67.994c-.511-.122-3.644-1.387-4.743-1.529a2.4,2.4,0,0,0-1.525.191c-.57.182-1.427.351-1.519.385a15.448,15.448,0,0,0-1.171,1.024c-.394.957-.748,1.379-.3,1.646.272.162.614-.194,1.251-1.005l.443-.308a2.289,2.289,0,0,0-.693,1.087.8.8,0,0,0,.719,1.047c.174.026.166-.128.234-.3l.186-.471c.551-.166,1.036-.332,1.578-.531a4.236,4.236,0,0,0-1.358.782c-.285.328-.038.62.208.911.345.4.844-.286,1.975-.608a2.687,2.687,0,0,0-1.162.722c-.219.345.22.55.548.574,1.37.1,3.634-.222,5.117-.137l-.162-2.885Z" transform="translate(-115.264 -63.862)" fill="#ffdba7" fill-rule="evenodd"/>
        <path id="Path_345" data-name="Path 345" d="M121.937,67.378a34.934,34.934,0,0,0-.522,4.5c6.888.616,13.344,1.438,20.6,1.068a2.837,2.837,0,0,0,2.4-1.044,4.981,4.981,0,0,0,.294-1.676c.28-2.049-1.154-2.728-2.638-3.393l-1.319-.59A68.347,68.347,0,0,1,121.937,67.378Z" transform="translate(-112.338 -63.954)" fill="#e3effa" fill-rule="evenodd"/>
      </g>
    </g>
    <path id="Path_346" data-name="Path 346" d="M132.355,58.187c.017,2.842.243,5.354.257,8.248l.057,10.3,5.854,2.363a1.16,1.16,0,0,0,.288-.69c.134-1.9.867-8.729,1.259-13.875.44-5.765.879-9.145-2.261-11.209C135.937,52.092,132.324,52.743,132.355,58.187Z" transform="translate(94.586 -20.483)" fill="#e3effa" fill-rule="evenodd"/>
    <g id="Group_119" data-name="Group 119" transform="translate(207.813 10.829)">
      <path id="Path_347" data-name="Path 347" d="M138.476,61.583c-.994,2.62-1.622,5.03-2.694,7.673l-3.323,8.2,4.295,6.145c.32-.234.385-.268.508-.531.8-1.7,3.9-7.715,6.088-12.307,2.452-5.143,4-8.223,1.846-11.237C143.91,57.727,140.38,56.565,138.476,61.583Z" transform="translate(-113.171 -32.7)" fill="#b4d3d6" fill-rule="evenodd"/>
      <path id="Path_348" data-name="Path 348" d="M139.343,56.4c1.164,3.045.747,6.979.24,10.449l6.437-.876.256-10.735.985-4.893-5.986,4.193Z" transform="translate(-109.459 -36.821)" fill="#f0c17d" fill-rule="evenodd"/>
      <path id="Path_349" data-name="Path 349" d="M139.03,79.964l3.119,8.046L140.9,93.343l18.392,4.164c-.856-2.82-2.12-5.877-2.183-9.7-.168-9.853,1.706-20.414-.816-24.169-2.234-3.325-6.263-6.008-7.68-8.612a9.909,9.909,0,0,1-5,3.082c-2.029.58-3.674.5-4.309,1.308-1.318,1.681-1.35,6.876-2.3,9.331-1.325,3.437-2.055,3.624-2.075,5.44C134.9,77.29,136.458,78.075,139.03,79.964Z" transform="translate(-111.838 -34.296)" fill="#05345e" fill-rule="evenodd"/>
      <path id="Path_350" data-name="Path 350" d="M145.643,55.008l1.39,1.769c-1.9,2.123-3.924,3.313-6.145,5.118l-.388-3.77A17.825,17.825,0,0,0,145.643,55.008Z" transform="translate(-108.835 -34.306)" fill="#dfe4e8" fill-rule="evenodd"/>
      <path id="Path_351" data-name="Path 351" d="M139.94,56.24c.037.613.171,1.181,1.1,1.278l-1.626,3.513C139.5,58.917,139.229,58.278,139.94,56.24Z" transform="translate(-109.422 -33.642)" fill="#dfe4e8" fill-rule="evenodd"/>
      <path id="Path_352" data-name="Path 352" d="M140.419,62.008c-1.128.334-2.027.443-2.4-.123a3.564,3.564,0,0,1-.368-1.993c-.011-.163-.212-.285-.5-.631-.57-.805.453-1.039,1.059-1.3-1.084.023-1.618.085-1.682-.908l.34-.251a2,2,0,0,0-.029-1.162c-.166-.553-1.331-.773-1.131-1.789a5.935,5.935,0,0,0,1.969-2.777c.368-1.235-.468-2.1.332-4.459a6.428,6.428,0,0,1,4.115-4.1c3.5-1.173,9.094-.957,11.108,1.513,5.545,6.8-4.364,14.941-4.516,15.041C146.531,60.524,143.39,61.132,140.419,62.008Z" transform="translate(-111.434 -41.414)" fill="#ffdba7" fill-rule="evenodd"/>
      <path id="Path_353" data-name="Path 353" d="M138.752,44.445c1.208-2.361,10.538-5.452,14.754.793,3.941,6.808,3.14,16.463.525,21.01-1.253,2.18-10.644,3.2-13.812,3.794a14.457,14.457,0,0,0,3.246-2.969,8.233,8.233,0,0,1-.9.562c2.64-4.932,4.2-6.818,2.558-11.349C142.391,53.427,132.347,47.485,138.752,44.445Z" transform="translate(-110.909 -41.559)" fill="#632404" fill-rule="evenodd"/>
      <path id="Path_354" data-name="Path 354" d="M123.031,60.984c-.805-1.279-1.238-2.869-2.58-4.065-1.044-.93-.388-1.7.785-.873A17.847,17.847,0,0,1,124.2,58.93c1.467,1.559,1.348,1.724,2.986,1.812,4.713.106,3.762.379,7.453,3.916l-2.617,1.783c-2.654-1.593-6.576-2.494-7.439-3.322A9.91,9.91,0,0,1,123.031,60.984Z" transform="translate(-119.929 -33.937)" fill="#ffdba7" fill-rule="evenodd"/>
      <path id="Path_355" data-name="Path 355" d="M130.647,60.485a45.8,45.8,0,0,0-4.576,2.369c3.52,5.836,6.624,11.448,11.14,17a2.559,2.559,0,0,0,2.6.917,3.247,3.247,0,0,0,1.134-.357,2.7,2.7,0,0,0,1.276-2.02c.1-.579-.663-1.49-1.113-2.432a18.676,18.676,0,0,0-2.431-4.267C135.375,68.651,132.562,63.808,130.647,60.485Z" transform="translate(-116.616 -31.352)" fill="#b4d3d6" fill-rule="evenodd"/>
    </g>
    <g id="Group_121" data-name="Group 121" transform="translate(195.356 44.256)">
      <path id="Path_356" data-name="Path 356" d="M146.073,75H111.836l1.993,7.053h34.236Z" transform="translate(-111.836 -50.978)" fill="#fff9f0" fill-rule="evenodd"/>
      <g id="Group_120" data-name="Group 120" transform="translate(19.35)">
        <path id="Path_357" data-name="Path 357" d="M143.875,64.347c.017,2.8.3,5.277.254,8.128l-.148,8.848,6.222,4.182a1.136,1.136,0,0,0,.283-.677c.132-1.872.856-8.6,1.242-13.675.434-5.68.767-9.111-2.329-11.146C147.556,58.792,143.843,58.981,143.875,64.347Z" transform="translate(-113.907 -59.394)" fill="#d8ebed" fill-rule="evenodd"/>
        <path id="Path_358" data-name="Path 358" d="M129.9,75.491c-1.407.554-2.7,1.579-4.486,1.75-1.393.132-1.322,1.144.117,1.167a17.9,17.9,0,0,0,4.1-.568c2.1-.389,2.106-.591,3.479.308,3.862,2.7,3.256,1.921,8.326,1.251l-1.057-2.983c-3.08-.286-6.776-1.881-7.961-1.727A9.922,9.922,0,0,0,129.9,75.491Z" transform="translate(-124.406 -51.151)" fill="#ffdba7" fill-rule="evenodd"/>
        <path id="Path_359" data-name="Path 359" d="M133.7,76.2a45.609,45.609,0,0,0-.179,5.149c6.813-.208,13.226-.162,20.282-1.375a2.567,2.567,0,0,0,2.072-1.816A3.391,3.391,0,0,0,156.121,77c.034-2.038-2.3-2.942-3.767-3.584a2.971,2.971,0,0,0-1.733-.2C146.4,76.038,138.609,76.149,133.7,76.2Z" transform="translate(-119.494 -51.964)" fill="#d8ebed" fill-rule="evenodd"/>
      </g>
    </g>
    <path id="Path_360" data-name="Path 360" d="M27.523,51.25a.9.9,0,0,0,.454,1.034.756.756,0,0,1-.46.844c-1.482-.04-.882.888-.767.894,1.078.057.962.456.794.807-.3.085-.425.214-.446.368-.075.473.828,1.352.208,2.2-.747,1.017-5.246-.787-7.338-1.616-1.735-.687-1.275-1.878-1.233-3.691-.942.2-1.7-.029-1.858-1.512a21.627,21.627,0,0,1-2.855-4.97s2.494-8.16,2.685-8.225,6.416.26,6.416.26c.837,1.128,2.133,2.133,3.017,3.456a12.49,12.49,0,0,1,1.67,3.885,2,2,0,0,1,.049,1.542,1.756,1.756,0,0,0-.172.6c.112,1.515,1.684,2.726,1.638,3.154A1.716,1.716,0,0,1,27.523,51.25Z" transform="translate(7.562 -32.989)" fill="#ffdba7" fill-rule="evenodd"/>
    <path id="Path_361" data-name="Path 361" d="M25.448,41.847a2.265,2.265,0,0,0-2.785.734c-.237.383-.009,5.723-.419,7.03l-.807-.272c-.742-.831-2.532-2.752-3.727-2.28-.924.368-.453,2.07.289,3.248a2.1,2.1,0,0,1,.288,1.743c-.337.971-1.248.536-2.133,1.5a12.9,12.9,0,0,0-1.43,2.549,13.648,13.648,0,0,0-1.869-4.716c-1.6-2.432-2.29-8.014.165-9.781,2.443-2.46,4.245-4.629,7.085-4.727C28.427,36.586,26.024,42.012,25.448,41.847Z" transform="translate(6.154 -33.264)" fill="#632404" fill-rule="evenodd"/>
    <path id="Path_362" data-name="Path 362" d="M62.731,72.04H28.493l1.993,7.053H64.723Z" transform="translate(20.354 -7.032)" fill="#fff9f0" fill-rule="evenodd"/>
    <path id="Path_363" data-name="Path 363" d="M23.827,42.775c2.681.349,4.721.451,6.12-2.458-2.1.714-4.267-4.946-11.731-3.014a6.814,6.814,0,0,1,2.026-.811A6.333,6.333,0,0,0,14.8,39.529c-1.827,1.094-2.058,1.783-3.031,3.616a5.4,5.4,0,0,1,1.053-.893,7.627,7.627,0,0,0-.536,7.235c.656,1.6,1.746,2.5,2.424,4.2a4,4,0,0,0,1.575-2.5c-1.275-1.156-.311-4.285,1.619-5.1,1.405-.1,1.849,1.131,2.391,2.221a5.882,5.882,0,0,0,1.719,2.066c.348-.34.068-1.021.368-2.842l.542.53A5.772,5.772,0,0,1,23.827,42.775Z" transform="translate(6.272 -33.463)" fill="#632404" fill-rule="evenodd"/>
    <g id="Group_124" data-name="Group 124" transform="translate(9.801 35.528)">
      <g id="Group_122" data-name="Group 122" transform="translate(46.551 24.309)">
        <path id="Path_364" data-name="Path 364" d="M45.586,71.856l1,2.032.052.717-1.861.833L42.6,75.2l-3.33-.248L37.4,73.8s-.068-2.133-.015-2.278a14.816,14.816,0,0,1,2.808-1.039C40.356,70.515,45.679,71.811,45.586,71.856Z" transform="translate(-36.203 -70.075)" fill="#e0aa5e" fill-rule="evenodd"/>
        <path id="Path_365" data-name="Path 365" d="M42.583,72.081l.152.114.493.758L42.2,73.3l-2.049-.759.722-.872Z" transform="translate(-34.697 -69.44)" fill="#cc964a" fill-rule="evenodd"/>
        <path id="Path_366" data-name="Path 366" d="M42.043,70.248a12.621,12.621,0,0,1,3.12.174,5.768,5.768,0,0,1,1.515.811c.6.343,1.413.671,2.5,1.3,2.135,1.227,3.5,1.81,3.363,2.317-.108.4-1.1.376-3.179-.471l-3.528-1.428c-.448.046-.934-.045-1.465.009s-1.231.123-1.846.185l-5.859-.67.111-1.584C38.866,70.6,40.245,70.385,42.043,70.248Z" transform="translate(-36.577 -70.22)" fill="#f0c17d" fill-rule="evenodd"/>
        <path id="Path_367" data-name="Path 367" d="M41.484,72.036l3.125,1.753c1.738.61,3.32.536,3.9,1.219.382.449-.211,1.327-1.321,1.181-.85-.263-3.132-.6-3.694-.722-1.1-.24-1.45.254-2.928.043-2.086-.294-2.7-1.3-3.959-1.918l.032-2.4S41.5,72.1,41.484,72.036Z" transform="translate(-36.609 -69.692)" fill="#f0c17d" fill-rule="evenodd"/>
      </g>
      <path id="Path_368" data-name="Path 368" d="M24.2,77.964c6.825.837,13.792.143,20.714.254-.085-3.711.249-4.8,1.518-7.016,0,0-18.815-2.238-19.269-2.238-.608,0-2.3.385-3.77,2.692C22.136,73.628,20.681,77.533,24.2,77.964Z" transform="translate(2.062 -46.588)" fill="#29343d" fill-rule="evenodd"/>
      <g id="Group_123" data-name="Group 123">
        <path id="Path_369" data-name="Path 369" d="M34.345,68.085h0a.583.583,0,0,1,.817.086l8.126,9.942.562,1.612-1.462-.882L34.262,68.9A.581.581,0,0,1,34.345,68.085Z" transform="translate(8.606 -47.131)" fill-rule="evenodd"/>
        <path id="Path_370" data-name="Path 370" d="M32.3,71.544c.787-.188,3.45-.743,5.14-.961a3.681,3.681,0,0,1,2.346.292c.876.282,2.2.542,2.338.593a23.52,23.52,0,0,1,1.8,1.573c.6,1.473,1.148,2.121.465,2.532-.417.248-.947-.3-1.926-1.545l-.683-.474a3.49,3.49,0,0,1,1.07,1.672,1.232,1.232,0,0,1-1.107,1.607c-.269.042-.254-.194-.362-.468l-.283-.723c-.848-.254-1.6-.511-2.427-.817a6.581,6.581,0,0,1,2.087,1.2c.437.5.06.957-.319,1.4-.531.623-1.3-.437-3.04-.936a4.114,4.114,0,0,1,1.789,1.113c.337.53-.339.845-.842.88a76.93,76.93,0,0,1-7.869-.209l.246-4.438Z" transform="translate(6.634 -45.753)" fill="#ffdba7" fill-rule="evenodd"/>
        <path id="Path_371" data-name="Path 371" d="M31.494,70.938l1.744.209a12.621,12.621,0,0,0-1.876,7l-2.181-.114,1.138-6.316Z" transform="translate(5.936 -45.523)" fill="#d8ebed" fill-rule="evenodd"/>
        <path id="Path_372" data-name="Path 372" d="M17.523,78.667c6.828.837,13.641.751,20.564.862-.085-3.713.4-6.165,1.669-8.383,0,0-15.019-.394-20.788-1.425-.6-.108-1.512.166-2.98,2.475C14.732,74.166,14.01,78.236,17.523,78.667Z" transform="translate(-1.737 -46.19)" fill="#5e6c78" fill-rule="evenodd"/>
        <path id="Path_373" data-name="Path 373" d="M11.624,74.23c1.709,3.119,3.534,5.966,5.07,8.434,2.158,3.468,2.879,3.876,5.871,4.227,3.276.385,5.591-7.723,4.535-8.485l-3.354-.494c-.628-.46-1.646-2.951-4.706-12.939-2.769-9.04-5.908-12.014-10.369-9.89C2.774,57.9,9.85,70.993,11.624,74.23Z" transform="translate(-6.367 -54.427)" fill="#5e6c78" fill-rule="evenodd"/>
      </g>
    </g>
  </g>
</svg>
