<svg id="CoachingSkills-GivingAndReceivingFeedback" xmlns="http://www.w3.org/2000/svg" width="334.747" height="214.731" viewBox="0 0 334.747 214.731">
  <g id="Group_69" data-name="Group 69" transform="translate(143.006 50.89)">
    <g id="Group_67" data-name="Group 67">
      <path id="Path_183" data-name="Path 183" d="M68.138,86.557c-3.517,2.954-7.089,2.927-9.73,6.484-.97,1.308-.417,4.149,1.493,5.2,1.965,1.086,4.808,1.627,6.709.425,1.649-1.044,9.268-6.287,10.537-6.679,6.4-1.982,6.968-2.611,5.978-9.9l.178-6.862-10.159.257C73.35,80.105,71.936,83.366,68.138,86.557Z" transform="translate(-57.939 59.553)" fill="#1f1c1d" fill-rule="evenodd"/>
      <path id="Path_184" data-name="Path 184" d="M83.646,58.476,81,164.3l-13.41-1.482L60.258,51.537l3.235-27.912,21.218-3.007V57.972Z" transform="translate(-54.534 -20.618)" fill="#05345e" fill-rule="evenodd"/>
      <path id="Path_185" data-name="Path 185" d="M76.623,58.476,73.98,164.3l-7.113-.786L65.041,40.375l.58-18.047,12.427-1.71.525,30.677-.3,6.677Z" transform="translate(-47.511 -20.618)" fill="#032747" fill-rule="evenodd"/>
    </g>
    <g id="Group_68" data-name="Group 68" transform="translate(30.438)">
      <path id="Path_186" data-name="Path 186" d="M87.71,86.557c3.517,2.954,7.089,2.927,9.727,6.484.972,1.308.42,4.149-1.491,5.2-1.967,1.086-4.811,1.627-6.709.425-1.649-1.044-9.271-6.287-10.539-6.679-6.393-1.982-6.968-2.611-5.976-9.9l-.178-6.862L82.7,75.48C82.5,80.105,83.911,83.366,87.71,86.557Z" transform="translate(-67.236 59.553)" fill="#1f1c1d" fill-rule="evenodd"/>
      <path id="Path_187" data-name="Path 187" d="M71.537,58.476,74.181,164.3l13.409-1.482L94.924,51.537,91.69,23.625,70.471,20.618V57.972Z" transform="translate(-69.977 -20.618)" fill="#032747" fill-rule="evenodd"/>
      <path id="Path_188" data-name="Path 188" d="M71.83,58.423l2.644,105.821,7.113-.786L83.412,40.322l-.579-18.047L70.271,20.654,70.5,57.963Z" transform="translate(-70.271 -20.565)" fill="#05345e" fill-rule="evenodd"/>
    </g>
  </g>
  <g id="Group_74" data-name="Group 74" transform="translate(127.168 0)">
    <rect id="Rectangle_514" data-name="Rectangle 514" width="16.128" height="13.409" transform="translate(40.04 32.29)" fill="#f0c17d"/>
    <path id="Path_189" data-name="Path 189" d="M69.085,17.246l10.069.051L89.1,17.17,87.152,80.478H69.1L65.437,31.1Z" transform="translate(-31.093 25.209)" fill="#bfd8db" fill-rule="evenodd"/>
    <path id="Path_190" data-name="Path 190" d="M73.648,17.471l3.367,4.967L76.931,23.7l-2.777,2.819,3.114,5.01-3.893,40.3-.031-.538-.031.538-3.89-40.3,3.114-5.01L69.757,23.7l-.084-1.262,3.367-4.967.3-.007Z" transform="translate(-25.242 25.639)" fill="#749eb8" fill-rule="evenodd"/>
    <path id="Path_191" data-name="Path 191" d="M79.282,36.522a1.271,1.271,0,0,1-.138,0,8.047,8.047,0,0,1-3.394-.4c-.871-.373-1.293-1.229-2.5-2.384-1.022-.985-2.856-1.989-3.3-3.061-.545-1.3-.415-2.725-.647-4.623-.948.523-1.962-2.192-2.165-3.083-.3-1.311-1.242-3.547-1.538-5.045-.17-.856-.067-1.54.222-1.755.615-.459,1.249-.21,2.165,1.039.059-1.059.128-2.15.091-3.307a28.773,28.773,0,0,1,.143-5.489,6.457,6.457,0,0,1,2.12-3.934h0v0A11.078,11.078,0,0,1,72.682,2.91l.027-.01c.054-.025.114-.054.168-.084a.681.681,0,0,0,.1-.044c.044-.022.091-.044.136-.062s.086-.039.131-.057a1.191,1.191,0,0,1,.143-.062,1.19,1.19,0,0,1,.128-.057c.059-.025.121-.049.183-.072l.089-.037c.089-.037.18-.069.271-.1l0,0a15.21,15.21,0,0,1,7.313-.694,12.406,12.406,0,0,1,6.447,2.838,6.453,6.453,0,0,1,2.115,3.917,28.675,28.675,0,0,1,.151,5.467c-.035,1.167.039,2.263.1,3.327.9-1.217,1.528-1.456,2.137-1,.289.215.392.9.222,1.755-.294,1.5-1.241,3.734-1.538,5.045-.2.881-1.192,3.542-2.13,3.1-.21,1.839-.1,3.223-.624,4.507-.447,1.076-2.266,2.093-3.28,3.085-1.2,1.172-1.617,2.031-2.485,2.416A7.564,7.564,0,0,1,79.282,36.522Z" transform="translate(-30.97 2.147)" fill="#ffdba7" fill-rule="evenodd"/>
    <path id="Path_192" data-name="Path 192" d="M71.706,9.831c-1.74-.032-2.735,6.978-2.666,12.583l-2.342-3.8C64.452,9.512,66.88-1.165,79.641.1c12-.647,13.881,9.619,10.912,19.072l-2,3.251c-.074-4.112-.336-10.988-2.135-12.4-1.609-1.261-4.006,2.058-7.449,1.994C76.173,11.966,73.443,9.865,71.706,9.831Z" transform="translate(-30.335 0)" fill="#632404" fill-rule="evenodd"/>
    <g id="Group_70" data-name="Group 70" transform="translate(48.102 41.246)">
      <path id="Path_193" data-name="Path 193" d="M79.8,17.156c4.356,1.511,11.164,6.659,14.249,7.9,6.282,2.532,9.915,4.835,8.775,12.341L92.662,82.307l-21.651-.3V45.928Z" transform="translate(-71.011 -16.058)" fill="#032747" fill-rule="evenodd"/>
      <path id="Path_194" data-name="Path 194" d="M79.948,16.711c1.513.523,2.917,1.081,4.238,1.644l1.177,8.086-4.23,1.271.5,4.9-10.623,17V47.09Z" transform="translate(-71.011 -16.711)" fill="#05345e" fill-rule="evenodd"/>
    </g>
    <g id="Group_71" data-name="Group 71" transform="translate(16.081 41.246)">
      <path id="Path_195" data-name="Path 195" d="M81.272,17.156c-4.361,1.511-11.166,6.659-14.251,7.9-6.282,2.532-9.915,4.835-8.774,12.341L68.41,82.307l21.651-.3L92.6,65.649,90.061,45.928Z" transform="translate(-58.038 -16.058)" fill="#05345e" fill-rule="evenodd"/>
      <path id="Path_196" data-name="Path 196" d="M70.611,16.711c-1.513.523-2.917,1.081-4.238,1.644L65.2,26.441l4.228,1.271-.5,4.9,10.623,17V47.09Z" transform="translate(-47.525 -16.711)" fill="#084478" fill-rule="evenodd"/>
    </g>
    <path id="Path_197" data-name="Path 197" d="M69.49,22.012c-2.683,3.2-13.56,30.1-17.393,39.5-1.061,2.6-1.044,8.148,3.52,9.742,3.258,1.14,7.56-.864,9.727-4.233L79.728,44.687Z" transform="translate(-51.522 32.318)" fill="#05345e" fill-rule="evenodd"/>
    <path id="Path_198" data-name="Path 198" d="M89.331,22.081c2.683,3.2,13.913,28.762,17.732,38.107,1.439,3.52,1.469,9.29-3.855,11.137-3.265,1.135-7.563-.861-9.732-4.231L79.093,44.756Z" transform="translate(-11.043 32.419)" fill="#032747" fill-rule="evenodd"/>
    <g id="Group_72" data-name="Group 72" transform="translate(37.985 37.988)">
      <path id="Path_199" data-name="Path 199" d="M79.263,15.391A4.433,4.433,0,0,0,81.2,18.812L76.227,27.3l-5.262-7.358C73.581,18.5,78.241,16.7,79.263,15.391Z" transform="translate(-60.961 -15.391)" fill="#d8ebed" fill-rule="evenodd"/>
      <path id="Path_200" data-name="Path 200" d="M68.85,15.391a4.456,4.456,0,0,1-1.938,3.421L71.881,27.3l5.262-7.358C74.526,18.5,69.866,16.7,68.85,15.391Z" transform="translate(-66.912 -15.391)" fill="#d8ebed" fill-rule="evenodd"/>
    </g>
    <g id="Group_73" data-name="Group 73" transform="translate(40.073 28.855)">
      <path id="Path_201" data-name="Path 201" d="M75.792,12.622c1.785.383,2.051-.01,3.426-.931-.842,1.5-2.258,3.263-4.527,3.362-1.747.077-4.349-1.138-3.409-2.584C72.109,11.2,74.624,12.37,75.792,12.622Z" transform="translate(-62.876 -11.691)" fill="#632404" fill-rule="evenodd"/>
      <path id="Path_202" data-name="Path 202" d="M71.186,12.622c-1.787.383-2.054-.01-3.428-.931.844,1.5,2.261,3.263,4.527,3.362,1.748.077,4.351-1.138,3.409-2.584C74.866,11.2,72.354,12.37,71.186,12.622Z" transform="translate(-67.758 -11.691)" fill="#632404" fill-rule="evenodd"/>
    </g>
  </g>
  <g id="Group_75" data-name="Group 75" transform="translate(0 70.805)">
    <path id="Path_203" data-name="Path 203" d="M0,28.687H12.553l10.8,83.093-16.435.882Z" transform="translate(0 -28.687)" fill="#b8b8b8" fill-rule="evenodd"/>
    <rect id="Rectangle_515" data-name="Rectangle 515" width="7.464" height="55.229" transform="translate(33.164 81.823)" fill="#9e9e9e"/>
    <path id="Rectangle_516" data-name="Rectangle 516" d="M2.336,0H58.392a2.337,2.337,0,0,1,2.337,2.337v8.558a2.336,2.336,0,0,1-2.336,2.336H2.337A2.337,2.337,0,0,1,0,10.894V2.336A2.336,2.336,0,0,1,2.336,0Z" transform="translate(6.531 70.744)" fill="#9e9e9e"/>
    <rect id="Rectangle_517" data-name="Rectangle 517" width="31.814" height="6.932" rx="1.224" transform="translate(20.988 132.745)" fill="#b8b8b8"/>
  </g>
  <path id="Path_204" data-name="Path 204" d="M60.733,99.242c-6.259,3.3-18.127-.072-24.312-1.128-2.125,1.229-5.487.02-6.758-.336C26.847,96.991,27.55,90.114,28.448,86c.726-3.3.148-5.961.148-9.651l11.835-2.128c-.654,6.015-1.3,8.083.19,10.779,3.068,5.558,8.654,6.072,13.1,7.333C60.871,94.357,61.942,97.845,60.733,99.242Z" transform="translate(40.605 108.976)" fill-rule="evenodd"/>
  <path id="Path_205" data-name="Path 205" d="M79.787,83.568,73.51,131.9l-20.081-2.826,6.59-48.012c-11.613,0-39.916-1.18-46.109-4.6C7.8,73.078,7.118,65.444,11.38,47.483l7.531-2.513A152.241,152.241,0,0,0,38.59,55.206c9.932,4.532,19.331,6.57,31.9,11.033C82.191,70.4,81.453,70.728,79.787,83.568Z" transform="translate(12.719 66.025)" fill="#202930" fill-rule="evenodd"/>
  <path id="Path_206" data-name="Path 206" d="M59.965,99.316c-6.259,3.3-18.127-.074-24.312-1.128-2.125,1.227-6.812.017-8.083-.338-2.814-.785-2.113-7.664-1.209-11.776.721-3.3.146-5.961.146-9.651l14.6-1.669c-.654,6.017-1.3,8.088.19,10.781,3.068,5.558,7.215,5.613,11.662,6.871C60.106,94.429,61.175,97.917,59.965,99.316Z" transform="translate(37.534 109.756)" fill="#212121" fill-rule="evenodd"/>
  <path id="Path_207" data-name="Path 207" d="M78.234,83.914l-6.277,48.325-20.084-2.826L58.464,81.4c-11.613,0-39.913-1.182-46.109-4.606-6.106-3.377-6.793-11.011-2.53-28.972l7.531-2.51A152.216,152.216,0,0,0,37.037,55.549c9.93,4.532,19.331,6.57,31.9,11.035C80.638,70.741,79.9,71.074,78.234,83.914Z" transform="translate(10.436 66.533)" fill="#29343d" fill-rule="evenodd"/>
  <path id="Path_208" data-name="Path 208" d="M19.912,50.245c.9,5.534,2.066,11.119,3.066,15.557,4.687,20.829,17.695-2.179,15.969-4.406-1.508-5.052-.933-11.119-2.4-23.463C34.9,24.062,33.193,17.944,25.112,19.866,14.422,22.409,18.976,44.5,19.912,50.245Z" transform="translate(26.646 28.661)" fill="#29343d" fill-rule="evenodd"/>
  <path id="Path_209" data-name="Path 209" d="M25.213,15.025c-2.11,4.26-1.535,6.867-6.143,8.94C11.655,27.3,9.792,29.686,7.706,33.332,1.35,44.441,13.106,67.82,13.321,86.46l34.913-3.051c-.731-13.923,9.6-47.78-.247-57.768L36.137,17Z" transform="translate(8.55 22.06)" fill="#44515c" fill-rule="evenodd"/>
  <path id="Path_210" data-name="Path 210" d="M21.539,13.718l-7.5,2.994-.6,3,1.19,14.372,6.294,48.634,7.9,1.6L30.673,47.17,30.486,35.1c-.109-6.849-1.091-10.838-2.466-13.343C26.779,19.5,25.342,18.687,21.539,13.718Z" transform="translate(19.73 20.141)" fill="#c6def2" fill-rule="evenodd"/>
  <path id="Path_211" data-name="Path 211" d="M24.707,15.607c-1.424,3.142-1.419,5.437-5.465,7.257C11.828,26.2,9.735,28.444,7.649,32.09,2.518,41.059,9.014,63.016,10.4,77.86c.321,3.448-.871,22.377-1.33,27.084,9.715,1.928,19.741,1.219,30.253,0-.2-12.181-2.789-46.2-5.341-58.126-1.145-5.361-3.078-10.539-5.652-17.176-1.627-4.193-3.182-8.747-3.544-12.24A13.013,13.013,0,0,1,24.707,15.607Z" transform="translate(8.377 22.914)" fill="#44515c" fill-rule="evenodd"/>
  <path id="Path_212" data-name="Path 212" d="M13.637,22.489l.81,4.89,8.7,10.522,2.345-2.221c3.712-8.589,3.216-8.069,4.036-17.574L16.182,11.234C15.481,17.14,14.654,18.3,13.637,22.489Z" transform="translate(20.022 16.494)" fill="#f0c17d" fill-rule="evenodd"/>
  <path id="Path_213" data-name="Path 213" d="M18.778,21.521,17.6,28.156a20.1,20.1,0,0,1,1.451,3.426l-.913,7.094c.819,8.807,2.431,18.874,3.618,26.284l.844.415c.3-9.683.17-17.268.309-27.094l-.864-6.235c.222-2.55.681-4.411.686-4.736.02-1.439-1.767-4.07-3.246-6.064Z" transform="translate(25.845 31.192)" fill="#8cb2d4" fill-rule="evenodd"/>
  <path id="Path_214" data-name="Path 214" d="M24.966,30.2c-.212,3.776-.264,7.316-1.3,9.828-6.862-6.346-10.295-17.043-10.06-24.749C15.036,19.972,15.609,24.407,24.966,30.2Z" transform="translate(19.965 22.427)" fill="#e3effa" fill-rule="evenodd"/>
  <path id="Path_215" data-name="Path 215" d="M18.117,26.654c1.6-1.59,3.28-7.447,3.961-8.987l1.076,4.556a31.635,31.635,0,0,1-1.088,10.663A22.9,22.9,0,0,0,18.117,26.654Z" transform="translate(26.6 25.939)" fill="#e3effa" fill-rule="evenodd"/>
  <path id="Path_216" data-name="Path 216" d="M121.42,30.509c-1.619,4.263-2.639,8.185-4.381,12.484l-5.41,13.338,6.988,10c.521-.383.627-.437.827-.864,1.3-2.764,6.346-12.556,9.907-20.025,3.986-8.367,6.5-13.38,3-18.284C130.261,24.235,124.52,22.347,121.42,30.509Z" transform="translate(163.895 36.204)" fill="#b4d3d6" fill-rule="evenodd"/>
  <path id="Path_217" data-name="Path 217" d="M149.513,28.687H136.96l-10.8,83.093,16.434.882Z" transform="translate(185.234 42.118)" fill="#b8b8b8" fill-rule="evenodd"/>
  <g id="Group_76" data-name="Group 76" transform="translate(254.727 133.532)">
    <path id="Path_218" data-name="Path 218" d="M107.011,72.561c4.208,14.772,11.929,37.655,11.754,43.88-.178,6.385-15.046,8.969-14.528,13.992,1.4.615,8.671.847,11.45.348,3.653-.657,5.472-2.194,8.619-2.357l.215,1.789,5.437-.249-.2-3.616c.012-6.864-2.851-8.575-3.347-11.855-1.432-9.468-1.881-23.512-1.846-33.568L114.278,62.91,103.312,54.1C102.64,57.853,105.232,66.306,107.011,72.561Z" transform="translate(-103.203 -54.101)" fill="#f0c17d" fill-rule="evenodd"/>
    <path id="Path_219" data-name="Path 219" d="M107.958,86.225c-2.814,1.37-4.524,3.11-4.327,4.9,1.4.615,8.671.844,11.45.348,3.653-.657,5.472-2.194,8.619-2.357l.215,1.789,5.437-.249-.067-3.611c.131-2.389.225-3.885-.906-6.178C126.166,84.386,113.321,87.636,107.958,86.225Z" transform="translate(-102.597 -14.797)" fill="#032747" fill-rule="evenodd"/>
  </g>
  <rect id="Rectangle_518" data-name="Rectangle 518" width="7.463" height="55.229" transform="translate(294.12 152.629)" fill="#9e9e9e"/>
  <rect id="Rectangle_519" data-name="Rectangle 519" width="60.727" height="13.231" rx="2.336" transform="translate(267.488 141.549)" fill="#9e9e9e"/>
  <path id="Rectangle_520" data-name="Rectangle 520" d="M1.224,0H30.592a1.225,1.225,0,0,1,1.225,1.225V5.708a1.224,1.224,0,0,1-1.224,1.224H1.225A1.225,1.225,0,0,1,0,5.708V1.224A1.224,1.224,0,0,1,1.224,0Z" transform="translate(281.943 203.55)" fill="#b8b8b8"/>
  <g id="Group_77" data-name="Group 77" transform="translate(251.96 133.532)">
    <path id="Path_220" data-name="Path 220" d="M105.89,72.561c4.206,14.772,11.931,37.655,11.756,43.88-.178,6.385-15.049,8.969-14.528,13.992,1.4.615,8.671.847,11.45.348,3.653-.657,5.472-2.194,8.617-2.357l.217,1.789,5.437-.249-.2-3.818c.015-6.864-2.848-8.372-3.344-11.652-1.432-9.468-1.881-23.512-1.849-33.568L113.159,62.91,102.19,54.1C101.521,57.853,104.113,66.306,105.89,72.561Z" transform="translate(-102.082 -54.101)" fill="#ffdba7" fill-rule="evenodd"/>
    <path id="Path_221" data-name="Path 221" d="M106.835,86.225c-2.814,1.37-4.522,3.11-4.324,4.9,1.4.615,8.671.844,11.45.348,3.653-.657,5.472-2.194,8.617-2.357l.217,1.789,5.437-.249-.069-3.611c.133-2.389.227-3.885-.9-6.178C125.046,84.386,112.2,87.636,106.835,86.225Z" transform="translate(-101.475 -14.797)" fill="#05345e" fill-rule="evenodd"/>
  </g>
  <path id="Path_222" data-name="Path 222" d="M144.476,45.817l24.776.368c5.114,15.841,3.27,23.465-2.574,27.777-5.45,4.026-36.882,8.752-47.38,12.092C113.1,76.173,108.8,72.261,101.6,65.708c13.36-6.9,25.946-11.107,39.978-14.676Z" transform="translate(149.174 67.269)" fill="#05345e" fill-rule="evenodd"/>
  <path id="Path_223" data-name="Path 223" d="M156.087,46.129l7.133-.163c5.114,15.841,3.27,23.465-2.574,27.777-5.45,4.026-36.882,8.752-47.38,12.092a80.327,80.327,0,0,0-7.555-10.389c21.5-10.542,39.032-16.668,46.072-18.457Z" transform="translate(155.206 67.487)" fill="#032747" fill-rule="evenodd"/>
  <path id="Path_224" data-name="Path 224" d="M118.614,26.757c1.893,4.954,1.217,11.356.392,17l10.473-1.427.417-17.465,1.6-7.962-9.739,6.822Z" transform="translate(174.15 24.818)" fill="#f0c17d" fill-rule="evenodd"/>
  <rect id="Rectangle_521" data-name="Rectangle 521" width="141.457" height="50.949" transform="translate(94.198 120.286)" fill="#c9c9cb"/>
  <path id="Path_225" data-name="Path 225" d="M120.805,62.23l5.077,13.089L123.843,84l29.922,6.773c-1.392-4.588-3.448-9.562-3.552-15.782-.269-16.031,2.777-33.212-1.325-39.324-3.631-5.408-10.191-9.774-12.494-14.012a16.114,16.114,0,0,1-8.125,5.013c-3.3.945-5.98.815-7.012,2.128-2.145,2.737-2.2,11.191-3.739,15.184-2.16,5.59-3.344,5.894-3.379,8.851C114.084,57.878,116.622,59.157,120.805,62.23Z" transform="translate(167.578 31.794)" fill="#05345e" fill-rule="evenodd"/>
  <path id="Path_226" data-name="Path 226" d="M128.155,21.636l2.263,2.878c-3.1,3.453-6.383,5.388-10,8.328l-.632-6.134C122.965,25.249,125.756,23.919,128.155,21.636Z" transform="translate(175.874 31.766)" fill="#dfe4e8" fill-rule="evenodd"/>
  <path id="Path_227" data-name="Path 227" d="M119.541,22.886c.062,1,.281,1.92,1.787,2.076l-2.643,5.719C118.818,27.242,118.386,26.2,119.541,22.886Z" transform="translate(174.254 33.601)" fill="#dfe4e8" fill-rule="evenodd"/>
  <path id="Path_228" data-name="Path 228" d="M123.213,34.146c.027,4.559.491,8.584.412,13.225l-.237,14.392,10.122,6.807a1.848,1.848,0,0,0,.462-1.1c.215-3.046,1.39-14,2.021-22.248.7-9.243,1.246-14.824-3.791-18.136C129.2,25.108,123.164,25.414,123.213,34.146Z" transform="translate(180.902 38.3)" fill="#d8ebed" fill-rule="evenodd"/>
  <path id="Path_229" data-name="Path 229" d="M122.609,41.1c-1.834.543-3.3.721-3.912-.2a5.793,5.793,0,0,1-.6-3.246c-.017-.264-.348-.464-.815-1.024-.928-1.313.736-1.691,1.723-2.118-1.765.042-2.634.141-2.737-1.476l.553-.407a3.247,3.247,0,0,0-.047-1.891c-.269-.9-2.165-1.259-1.841-2.912a9.619,9.619,0,0,0,3.2-4.519c.6-2.007-.76-3.411.543-7.252a10.465,10.465,0,0,1,6.694-6.672c5.7-1.908,14.8-1.557,18.072,2.461,9.024,11.065-7.1,24.312-7.345,24.475C132.553,38.681,127.444,39.673,122.609,41.1Z" transform="translate(168.694 12.129)" fill="#ffdba7" fill-rule="evenodd"/>
  <path id="Path_230" data-name="Path 230" d="M119.3,12.685c1.965-3.843,17.147-8.871,24.008,1.288,6.41,11.077,5.107,26.785.852,34.182-2.041,3.547-17.317,5.208-22.473,6.175a23.582,23.582,0,0,0,5.282-4.83,13.571,13.571,0,0,1-1.461.913c4.295-8.024,6.83-11.092,4.161-18.465C125.219,27.3,108.879,17.629,119.3,12.685Z" transform="translate(170.144 11.73)" fill="#632404" fill-rule="evenodd"/>
  <g id="Group_80" data-name="Group 80" transform="translate(91.844 129.147)">
    <g id="Group_78" data-name="Group 78" transform="translate(135.632)">
      <rect id="Rectangle_522" data-name="Rectangle 522" width="10.533" height="85.585" fill="#c9c9cb"/>
      <rect id="Rectangle_523" data-name="Rectangle 523" width="5.264" height="85.585" transform="translate(5.266)" fill="#b8b8b8"/>
    </g>
    <g id="Group_79" data-name="Group 79">
      <rect id="Rectangle_524" data-name="Rectangle 524" width="10.532" height="85.585" fill="#c9c9cb"/>
      <rect id="Rectangle_525" data-name="Rectangle 525" width="5.264" height="85.585" transform="translate(5.265)" fill="#b8b8b8"/>
    </g>
  </g>
  <path id="Path_231" data-name="Path 231" d="M27.617,38.742H256.981l12.31,24.985H15.306Z" transform="translate(22.472 56.881)" fill="#c9c9cb" fill-rule="evenodd"/>
  <rect id="Rectangle_526" data-name="Rectangle 526" width="253.675" height="12.388" transform="translate(38.088 120.288)" fill="#dadada"/>
  <path id="Path_232" data-name="Path 232" d="M103.963,30.939c-1.311-2.081-2.017-4.667-4.2-6.615-1.7-1.513-.634-2.769,1.279-1.419a29.251,29.251,0,0,1,4.828,4.692c2.387,2.54,2.192,2.806,4.86,2.947,7.669.175,6.119.617,12.126,6.375l-4.26,2.9c-4.317-2.592-10.7-4.058-12.1-5.4A16.267,16.267,0,0,1,103.963,30.939Z" transform="translate(145.227 32.785)" fill="#ffdba7" fill-rule="evenodd"/>
  <path id="Path_233" data-name="Path 233" d="M112.591,27.193a74.8,74.8,0,0,0-7.444,3.855c5.726,9.5,10.779,18.628,18.126,27.666a4.162,4.162,0,0,0,4.226,1.491,5.34,5.34,0,0,0,1.846-.58,4.389,4.389,0,0,0,2.076-3.288c.168-.94-1.081-2.421-1.814-3.957-1.34-2.806-2.826-5.9-3.954-6.941C120.287,40.479,115.708,32.6,112.591,27.193Z" transform="translate(154.378 39.925)" fill="#b4d3d6" fill-rule="evenodd"/>
  <path id="Path_234" data-name="Path 234" d="M146.408,41.92H90.7L93.945,53.4H149.65Z" transform="translate(133.17 61.548)" fill="#fff9f0" fill-rule="evenodd"/>
  <path id="Path_235" data-name="Path 235" d="M112.39,42.918c-2.288.9-4.388,2.569-7.3,2.848-2.263.215-2.152,1.859.19,1.9a29.354,29.354,0,0,0,6.669-.926c3.426-.634,3.428-.963,5.662.5,6.284,4.4,5.3,3.125,13.546,2.036l-1.718-4.855c-5.013-.464-11.026-3.058-12.953-2.809A16.229,16.229,0,0,0,112.39,42.918Z" transform="translate(151.898 61.07)" fill="#ffdba7" fill-rule="evenodd"/>
  <path id="Path_236" data-name="Path 236" d="M113,45a74.148,74.148,0,0,0-.291,8.377c11.085-.338,21.518-.264,33-2.239a4.167,4.167,0,0,0,3.372-2.952,5.547,5.547,0,0,0,.4-1.893c.052-3.317-3.742-4.786-6.129-5.83a4.814,4.814,0,0,0-2.819-.333C133.666,44.732,120.989,44.912,113,45Z" transform="translate(165.469 58.826)" fill="#d8ebed" fill-rule="evenodd"/>
  <path id="Path_237" data-name="Path 237" d="M36.2,26.319A1.475,1.475,0,0,0,36.933,28a1.232,1.232,0,0,1-.748,1.372c-2.411-.067-1.436,1.444-1.246,1.454,1.752.091,1.565.743,1.291,1.313-.484.141-.689.35-.728.6-.121.77,1.348,2.2.341,3.574-1.214,1.656-8.535-1.279-11.941-2.626-2.821-1.121-2.073-3.058-2-6.01-1.533.326-2.762-.047-3.024-2.456-2.241-2.693-3.107-4.954-4.645-8.088,0,0,4.055-13.279,4.364-13.383s10.445.422,10.445.422c1.36,1.839,3.47,3.47,4.909,5.625a20.407,20.407,0,0,1,2.715,6.324,3.228,3.228,0,0,1,.079,2.508,2.741,2.741,0,0,0-.279.982c.18,2.466,2.74,4.438,2.661,5.131C39.058,25.314,37.989,26.376,36.2,26.319Z" transform="translate(20.89 5.489)" fill="#ffdba7" fill-rule="evenodd"/>
  <path id="Path_238" data-name="Path 238" d="M34.416,11.334c-1.777-.506-3.542-.4-4.529,1.195-.388.627-.015,9.313-.679,11.438l-1.316-.442c-1.2-1.353-4.119-4.48-6.062-3.71-1.5.6-.738,3.369.471,5.282a3.416,3.416,0,0,1,.464,2.836c-.545,1.582-2.026.874-3.468,2.436-1.177,1.276-1.785,3.275-2.325,4.149-1.091-3.922-1.466-5.287-3.041-7.676C11.323,22.885,10.2,13.8,14.2,10.927c3.971-4,6.906-7.528,11.529-7.688C39.261,2.774,35.356,11.6,34.416,11.334Z" transform="translate(16.999 4.729)" fill="#632404" fill-rule="evenodd"/>
  <path id="Path_239" data-name="Path 239" d="M84.617,38.918h-55.7L32.154,50.4H87.86Z" transform="translate(42.449 57.139)" fill="#fff9f0" fill-rule="evenodd"/>
  <path id="Path_240" data-name="Path 240" d="M31.645,13.07c4.364.568,7.681.736,9.959-4-3.423,1.16-6.943-8.049-19.087-4.9a11.018,11.018,0,0,1,3.3-1.32c-3.6.178-7.111,1.718-8.861,4.941-2.977,1.782-3.352,2.9-4.934,5.884a8.752,8.752,0,0,1,1.713-1.451c-2.15,2.893-2.6,7.558-.871,11.771,1.069,2.609,2.841,4.07,3.944,6.83,1.693-.968,2.3-3.1,2.562-4.073-2.073-1.881-.5-6.973,2.636-8.3,2.286-.168,3.009,1.844,3.89,3.616a9.616,9.616,0,0,0,2.794,3.362c.565-.555.111-1.664.6-4.623l.881.859A9.4,9.4,0,0,1,31.645,13.07Z" transform="translate(17.327 4.18)" fill="#632404" fill-rule="evenodd"/>
  <g id="Group_84" data-name="Group 84" transform="translate(127.474 67.223)">
    <rect id="Rectangle_527" data-name="Rectangle 527" width="27.753" height="38.356" transform="translate(36.626)" fill="#a5afb8"/>
    <g id="Group_83" data-name="Group 83" transform="translate(0 11.169)">
      <g id="Group_81" data-name="Group 81" transform="translate(52.844)">
        <path id="Path_241" data-name="Path 241" d="M77.6,32.485c-.444.252-1.738.935-2.685,1.567-1.047.7-1.242,1.441-1.051,1.938a.752.752,0,0,0,.861.341,21.9,21.9,0,0,0,2.194-.822c.691-.279,1.474-.624,2.369-1.071,1.71.526,3.135.891,4.917,1.274l.575-1.787c-.035-1.234-1.523-1.419-2.7-1.644-.595-.114-1.207-.254-1.792-.378C78.883,31.606,79,31.764,77.6,32.485Z" transform="translate(-71.96 -31.761)" fill="#ffdba7" fill-rule="evenodd"/>
        <path id="Path_242" data-name="Path 242" d="M84.691,33.181c-.657.02-2.868.847-4.477,1.029-.459.052-.923.094-1.348.16-1.022.153-2.029.346-3.048.466a15.636,15.636,0,0,0-1.982.395c-.923.23-1.187,2.017.1,2.118a6.479,6.479,0,0,0,1.437-.01,21.962,21.962,0,0,1,2.332-.188,8.426,8.426,0,0,0,2.606-.163c1.283-.346,3.011-.632,4.475-1.064C85.463,35.726,85.9,33.147,84.691,33.181Z" transform="translate(-73.056 -29.676)" fill="#ffdba7" fill-rule="evenodd"/>
        <path id="Path_243" data-name="Path 243" d="M74.419,37.276c.518.1.926.131,1.525.2.723.086,1.508.244,2.16.309a1.925,1.925,0,0,0,.76-.017c.523-.086,1.259-.242,1.994-.338,1.612-.207,3.317-.531,3.433-2.046.1-1.338-1.92-.9-3.932-.494a25.266,25.266,0,0,1-2.488.526c-.595.059-2.4-.1-3.28-.062C73.755,35.39,73.447,37.081,74.419,37.276Z" transform="translate(-71.942 -27.765)" fill="#ffdba7" fill-rule="evenodd"/>
        <path id="Path_244" data-name="Path 244" d="M77.352,41.23a10.541,10.541,0,0,1-2.451-.138,5.171,5.171,0,0,0,2.552,1.636,10.888,10.888,0,0,0,1.279.173c.627.118,1.511.23,2.2.313,1.367.168,2.54.5,3.811.531,1.545.037,3.3-.671,4.944-.777.531-3.628,1.624-2.987.829-6.363a9.715,9.715,0,0,1-7.032-3.418c-1.123-1.249-.861-.975-2.382-1.106l.358,2.569-.168,3.056-1.214,1.229,1.53,1.481A10.05,10.05,0,0,1,77.352,41.23Z" transform="translate(-70.348 -31.292)" fill="#ffdba7" fill-rule="evenodd"/>
      </g>
      <path id="Path_245" data-name="Path 245" d="M80.65,33.2a164.09,164.09,0,0,1,21.762,5.534c3.019,1,6.353,7.814,4.983,11.778-.718,2.088-2.959,2.424-6.583,2.871-3.584.444-13.089-5.867-21.093-10.45Z" transform="translate(-10.429 -29.648)" fill="#05345e" fill-rule="evenodd"/>
      <g id="Group_82" data-name="Group 82" transform="translate(27.426 8.349)">
        <path id="Path_246" data-name="Path 246" d="M73.385,36.088c.412.3,1.614,1.138,2.476,1.881.953.822,1.056,1.582.81,2.051a.752.752,0,0,1-.9.234A21.99,21.99,0,0,1,73.7,39.17c-.652-.36-1.39-.8-2.221-1.35-1.762.313-3.221.5-5.038.669l-.353-1.846c.185-1.219,1.683-1.222,2.88-1.3.6-.042,1.227-.106,1.822-.158C72.225,35.058,72.087,35.2,73.385,36.088Z" transform="translate(-57.875 -35.143)" fill="#ffdba7" fill-rule="evenodd"/>
        <path id="Path_247" data-name="Path 247" d="M67.039,36.355c.649.1,2.745,1.19,4.317,1.565.452.109.906.2,1.323.321.995.279,1.967.592,2.967.837a15.537,15.537,0,0,1,1.918.629c.889.341.935,2.147-.36,2.091a6.592,6.592,0,0,1-1.424-.183,22.363,22.363,0,0,0-2.288-.471,8.359,8.359,0,0,1-2.572-.479c-1.232-.5-2.912-.992-4.312-1.6C65.963,38.787,65.844,36.173,67.039,36.355Z" transform="translate(-57.81 -33.378)" fill="#ffdba7" fill-rule="evenodd"/>
        <path id="Path_248" data-name="Path 248" d="M75.578,41.5c-.526.039-.935.017-1.538.015-.728,0-1.528.059-2.182.044a1.973,1.973,0,0,1-.753-.111c-.508-.148-1.217-.392-1.94-.578-1.572-.4-3.228-.931-3.157-2.448.059-1.34,2.017-.659,3.961-.015a23.519,23.519,0,0,0,2.407.824c.585.133,2.394.195,3.263.341C76.469,39.715,76.567,41.431,75.578,41.5Z" transform="translate(-57.989 -31.455)" fill="#ffdba7" fill-rule="evenodd"/>
        <path id="Path_249" data-name="Path 249" d="M75.8,44.875a10.854,10.854,0,0,0,2.451.16,5.185,5.185,0,0,1-2.735,1.313,11.34,11.34,0,0,1-1.288.015c-.639.042-1.528.044-2.224.047-1.375,0-2.584.188-3.845.064-1.538-.153-3.2-1.069-4.813-1.375-.086-3.665-1.249-3.159-.052-6.417a9.7,9.7,0,0,0,7.395-2.537c1.269-1.1.975-.864,2.5-.81l-.671,2.508-.2,3.053,1.054,1.367-1.7,1.283A10.068,10.068,0,0,0,75.8,44.875Z" transform="translate(-62.758 -34.949)" fill="#ffdba7" fill-rule="evenodd"/>
      </g>
      <path id="Path_250" data-name="Path 250" d="M82.523,37.689c-4.433-.763-18.287-2.784-23.687-2.456-4.87.3-7.827,6.314-7.071,9.48.61,2.557,1.95,1.935,5.526,3.584,4.685,2.162,18.373-1.78,24.156-2Z" transform="translate(-51.646 -26.715)" fill="#084478" fill-rule="evenodd"/>
    </g>
  </g>
  <g id="Group_87" data-name="Group 87" transform="translate(15.948 51.946)">
    <g id="Group_85" data-name="Group 85" transform="translate(75.741 39.554)">
      <path id="Path_251" data-name="Path 251" d="M51.291,39.571l1.624,3.3L53,44.044,49.97,45.4l-3.53-.39-5.418-.4L37.97,42.741s-.111-3.47-.027-3.707a24.19,24.19,0,0,1,4.571-1.691C42.783,37.387,51.441,39.495,51.291,39.571Z" transform="translate(-36.027 -36.675)" fill="#e0aa5e" fill-rule="evenodd"/>
      <path id="Path_252" data-name="Path 252" d="M44.7,39.217l.247.186.8,1.233-1.666.556-3.332-1.234,1.172-1.42Z" transform="translate(-31.865 -34.92)" fill="#cc964a" fill-rule="evenodd"/>
      <path id="Path_253" data-name="Path 253" d="M45.954,37.117a20.694,20.694,0,0,1,5.077.281,9.522,9.522,0,0,1,2.463,1.32c.98.558,2.3,1.093,4.073,2.113,3.473,2,5.7,2.947,5.472,3.771-.178.652-1.785.61-5.173-.768l-5.739-2.325c-.731.079-1.52-.072-2.384.017s-2,.2-3.006.3l-9.53-1.091.18-2.572C40.783,37.695,43.03,37.339,45.954,37.117Z" transform="translate(-37.061 -37.072)" fill="#f0c17d" fill-rule="evenodd"/>
      <path id="Path_254" data-name="Path 254" d="M45.078,39.428l5.082,2.853c2.831.99,5.4.874,6.351,1.982.622.731-.343,2.16-2.147,1.923-1.385-.429-5.1-.975-6.013-1.175-1.787-.392-2.36.41-4.764.069-3.391-.481-4.4-2.12-6.44-3.12l.049-3.9S45.11,39.534,45.078,39.428Z" transform="translate(-37.148 -35.616)" fill="#f0c17d" fill-rule="evenodd"/>
    </g>
    <path id="Path_255" data-name="Path 255" d="M25.9,50.443c11.1,1.362,22.441.232,33.7.412-.136-6.04.407-7.807,2.471-11.415,0,0-30.613-3.643-31.354-3.643-.987,0-3.742.624-6.131,4.381C22.547,43.384,20.18,49.74,25.9,50.443Z" transform="translate(16.823 0.611)" fill="#29343d" fill-rule="evenodd"/>
    <g id="Group_86" data-name="Group 86">
      <path id="Path_256" data-name="Path 256" d="M34.983,34.985h0a.944.944,0,0,1,1.325.138L49.533,51.3l.911,2.624L48.067,52.49,34.844,36.313A.944.944,0,0,1,34.983,34.985Z" transform="translate(34.902 -0.89)" fill-rule="evenodd"/>
      <path id="Path_257" data-name="Path 257" d="M33.885,39.049c1.281-.306,5.615-1.209,8.365-1.565,1.97-.254,2.029-.1,3.816.476,1.427.459,3.574.881,3.806.965a38.337,38.337,0,0,1,2.932,2.56c.98,2.4,1.868,3.451.755,4.119-.679.4-1.54-.489-3.132-2.513l-1.113-.773a5.673,5.673,0,0,1,1.74,2.72,2,2,0,0,1-1.8,2.616c-.439.067-.415-.318-.59-.76L48.2,45.713c-1.38-.41-2.6-.829-3.949-1.325a10.8,10.8,0,0,1,3.4,1.952c.713.822.1,1.557-.518,2.283-.864,1.014-2.113-.713-4.949-1.52.935.422,2.332.9,2.91,1.809.55.859-.55,1.375-1.37,1.432A124.779,124.779,0,0,1,30.923,50l.4-7.22Z" transform="translate(29.454 2.915)" fill="#ffdba7" fill-rule="evenodd"/>
      <path id="Path_258" data-name="Path 258" d="M33.373,37.8l2.838.341a20.538,20.538,0,0,0-3.056,11.386l-3.547-.185L31.46,39.066Z" transform="translate(27.525 3.552)" fill="#d8ebed" fill-rule="evenodd"/>
      <path id="Path_259" data-name="Path 259" d="M19.354,51.134c11.109,1.362,22.194,1.219,33.459,1.4-.138-6.04.654-10.031,2.715-13.639,0,0-24.438-.644-33.822-2.32-.972-.173-2.461.274-4.852,4.028C14.812,43.811,13.64,50.43,19.354,51.134Z" transform="translate(6.33 1.71)" fill="#5e6c78" fill-rule="evenodd"/>
      <path id="Path_260" data-name="Path 260" d="M15.011,53.268c2.782,5.075,5.751,9.707,8.249,13.721,3.515,5.645,4.685,6.309,9.554,6.879,5.331.627,9.1-12.568,7.377-13.8l-5.457-.8c-1.019-.75-2.678-4.8-7.654-21.051C22.573,23.5,17.464,18.654,10.21,22.114.616,26.69,12.125,48,15.011,53.268Z" transform="translate(-6.461 -21.046)" fill="#5e6c78" fill-rule="evenodd"/>
    </g>
  </g>
</svg>
