<svg id="CoachingSkills2-BeACoach" xmlns="http://www.w3.org/2000/svg" width="225.292" height="186.583" viewBox="0 0 225.292 186.583">
  <g id="Group_45" data-name="Group 45" transform="translate(102.924)">
    <g id="Group_37" data-name="Group 37">
      <g id="Group_35" data-name="Group 35" transform="translate(0.944 61.886)">
        <g id="Group_34" data-name="Group 34" transform="translate(0 8.99)">
          <path id="Path_88" data-name="Path 88" d="M94.133,42.552h4.615L66.973,144.267H62.359Z" transform="translate(-62.359 -42.552)" fill="#d8ebed" fill-rule="evenodd"/>
          <path id="Path_89" data-name="Path 89" d="M88.884,42.552H84.269l31.774,101.715h4.615Z" transform="translate(-47.774 -42.552)" fill="#d8ebed" fill-rule="evenodd"/>
        </g>
        <path id="Path_90" data-name="Path 90" d="M83.537,38.521l2.66-1.367L86.055,142.4H83.4Z" transform="translate(-48.355 -37.154)" fill="#d8ebed" fill-rule="evenodd"/>
      </g>
      <g id="Group_36" data-name="Group 36">
        <rect id="Rectangle_497" data-name="Rectangle 497" width="71.542" height="99.789" transform="translate(1.615 0.999)" fill="#f2fbfc"/>
        <rect id="Rectangle_498" data-name="Rectangle 498" width="74.771" height="6.653" fill="#d8ebed"/>
        <rect id="Rectangle_499" data-name="Rectangle 499" width="74.771" height="6.653" transform="translate(0 100.108)" fill="#d8ebed"/>
      </g>
    </g>
    <g id="Group_44" data-name="Group 44" transform="translate(1.964 12.566)">
      <g id="Group_38" data-name="Group 38" transform="translate(1.566)">
        <rect id="Rectangle_500" data-name="Rectangle 500" width="0.758" height="46.292" fill="#7b8596"/>
        <rect id="Rectangle_501" data-name="Rectangle 501" width="0.758" height="46.292" transform="translate(13.264)" fill="#7b8596"/>
        <rect id="Rectangle_502" data-name="Rectangle 502" width="0.758" height="46.292" transform="translate(26.528)" fill="#7b8596"/>
        <rect id="Rectangle_503" data-name="Rectangle 503" width="0.758" height="46.292" transform="translate(39.793)" fill="#7b8596"/>
        <rect id="Rectangle_504" data-name="Rectangle 504" width="0.756" height="46.292" transform="translate(53.058)" fill="#7b8596"/>
        <rect id="Rectangle_505" data-name="Rectangle 505" width="0.758" height="46.292" transform="translate(66.322)" fill="#7b8596"/>
      </g>
      <rect id="Rectangle_506" data-name="Rectangle 506" width="70.844" height="0.758" transform="translate(0 41.233)" fill="#7b8596"/>
      <g id="Group_39" data-name="Group 39" transform="translate(26.995 10.629)">
        <path id="Path_91" data-name="Path 91" d="M80.09,22.478l13.236-3.81h0l13.226-4.208.228-.073.164.179L120.087,28.9l-.241.73-.132-.02-.091-.1L106.55,15.254,93.544,19.392l-.011,0L80.3,23.206Z" transform="translate(-78.571 -13.618)" fill="#d13131" fill-rule="evenodd"/>
        <circle id="Ellipse_8" data-name="Ellipse 8" cx="1.479" cy="1.479" r="1.479" transform="translate(0 7.721)" fill="#d13131"/>
        <path id="Path_92" data-name="Path 92" d="M88.621,16.393a1.478,1.478,0,1,1-1.479,1.477A1.477,1.477,0,0,1,88.621,16.393Z" transform="translate(-73.877 -12.282)" fill="#d13131" fill-rule="evenodd"/>
        <path id="Path_93" data-name="Path 93" d="M96.584,13.925A1.478,1.478,0,1,1,95.105,15.4,1.478,1.478,0,0,1,96.584,13.925Z" transform="translate(-68.577 -13.925)" fill="#d13131" fill-rule="evenodd"/>
        <circle id="Ellipse_9" data-name="Ellipse 9" cx="1.479" cy="1.479" r="1.479" transform="translate(39.793 13.837)" fill="#d13131"/>
      </g>
      <g id="Group_40" data-name="Group 40" transform="translate(13.831 19.953)">
        <path id="Path_94" data-name="Path 94" d="M71.907,23.867,85.243,28.28l.007,0,13.636-8.022.106-.06.12.01,13.236,1.2.094.008.076.052,13.213,8.606-.335.678-.029-.013-.023-.015-13.159-8.574L99.164,20.967,85.637,28.924v0L72.3,24.513Z" transform="translate(-70.855 -19.076)" fill="#005291" fill-rule="evenodd"/>
        <path id="Path_95" data-name="Path 95" d="M72.754,21.691a1.479,1.479,0,1,1-1.479,1.477A1.479,1.479,0,0,1,72.754,21.691Z" transform="translate(-71.275 -18.08)" fill="#005291" fill-rule="evenodd"/>
        <path id="Path_96" data-name="Path 96" d="M80.657,24.339a1.479,1.479,0,1,1-1.479,1.481A1.479,1.479,0,0,1,80.657,24.339Z" transform="translate(-66.014 -16.317)" fill="#005291" fill-rule="evenodd"/>
        <path id="Path_97" data-name="Path 97" d="M88.621,19.523A1.479,1.479,0,1,1,87.142,21,1.478,1.478,0,0,1,88.621,19.523Z" transform="translate(-60.713 -19.523)" fill="#005291" fill-rule="evenodd"/>
        <path id="Path_98" data-name="Path 98" d="M96.584,20.216A1.478,1.478,0,1,1,95.105,21.7,1.478,1.478,0,0,1,96.584,20.216Z" transform="translate(-55.413 -19.062)" fill="#005291" fill-rule="evenodd"/>
        <circle id="Ellipse_10" data-name="Ellipse 10" cx="1.479" cy="1.479" r="1.479" transform="translate(52.957 9.627)" fill="#005291"/>
      </g>
      <g id="Group_42" data-name="Group 42" transform="translate(0.466 17.497)">
        <path id="Path_99" data-name="Path 99" d="M64.154,37.836l12.635-6.619.163-.085.169.076,13.812,6.313,12.85-11.664.174-.158.218.084,13.013,5.127,12.66-12.068.044-.042.058-.026.374.66-12.79,12.19-.176.168-.223-.088-13.018-5.13L91.256,38.249l-.184.168-.228-.1-13.869-6.34L64.5,38.5Z" transform="translate(-62.65 -17.565)" fill="#139eab" fill-rule="evenodd"/>
        <g id="Group_41" data-name="Group 41">
          <path id="Path_100" data-name="Path 100" d="M64.73,29.547a1.478,1.478,0,1,1-1.479,1.479A1.478,1.478,0,0,1,64.73,29.547Z" transform="translate(-63.251 -10.395)" fill="#139eab" fill-rule="evenodd"/>
          <circle id="Ellipse_11" data-name="Ellipse 11" cx="1.479" cy="1.479" r="1.479" transform="translate(26.529 18.877)" fill="#139eab"/>
          <circle id="Ellipse_12" data-name="Ellipse 12" cx="1.479" cy="1.479" r="1.479" transform="translate(13.265 12.282)" fill="#139eab"/>
          <path id="Path_101" data-name="Path 101" d="M88.621,22.353a1.478,1.478,0,1,1-1.479,1.477A1.477,1.477,0,0,1,88.621,22.353Z" transform="translate(-47.348 -15.184)" fill="#139eab" fill-rule="evenodd"/>
          <path id="Path_102" data-name="Path 102" d="M96.584,25.332a1.479,1.479,0,1,1-1.479,1.479A1.478,1.478,0,0,1,96.584,25.332Z" transform="translate(-42.047 -13.201)" fill="#139eab" fill-rule="evenodd"/>
          <circle id="Ellipse_13" data-name="Ellipse 13" cx="1.479" cy="1.479" r="1.479" transform="translate(66.322)" fill="#139eab"/>
        </g>
      </g>
      <g id="Group_43" data-name="Group 43" transform="translate(0.358 47.446)">
        <path id="Path_103" data-name="Path 103" d="M63.769,37.945V36.789l-.408.163a1.3,1.3,0,0,1-.1-.17.983.983,0,0,1-.07-.185l.949-.416h.088v1.764H64.7a.957.957,0,0,1,.013.1c0,.03,0,.062,0,.092s0,.068,0,.1a.906.906,0,0,1-.013.1H63.288c0-.038-.01-.072-.012-.1a.966.966,0,0,1,0-.1.839.839,0,0,1,0-.092c0-.032.007-.065.012-.1Zm2.119.438A.808.808,0,0,1,65.5,38.3a.712.712,0,0,1-.267-.23,1.034,1.034,0,0,1-.155-.353,1.772,1.772,0,0,1-.052-.445,1.714,1.714,0,0,1,.053-.445,1.066,1.066,0,0,1,.158-.355.724.724,0,0,1,.268-.233.841.841,0,0,1,.39-.085.817.817,0,0,1,.383.085.719.719,0,0,1,.267.233,1,1,0,0,1,.157.355,1.875,1.875,0,0,1,.05.445,1.769,1.769,0,0,1-.053.445,1.072,1.072,0,0,1-.158.353.728.728,0,0,1-.272.23.836.836,0,0,1-.386.083Zm.007-.4a.291.291,0,0,0,.263-.175,1.608,1.608,0,0,0,0-1.079.29.29,0,0,0-.263-.173.3.3,0,0,0-.27.173,1.142,1.142,0,0,0-.1.54,1.118,1.118,0,0,0,.1.54A.3.3,0,0,0,65.894,37.986Z" transform="translate(-63.186 -35.946)" fill="#7b8596" fill-rule="evenodd"/>
        <path id="Path_104" data-name="Path 104" d="M71.122,38.294l.483-.631c.075-.1.142-.188.2-.263a2.1,2.1,0,0,0,.15-.207.953.953,0,0,0,.093-.175.431.431,0,0,0,.032-.163.263.263,0,0,0-.1-.215.447.447,0,0,0-.273-.077.964.964,0,0,0-.128.007.876.876,0,0,0-.1.02.683.683,0,0,0-.1.033.781.781,0,0,0-.1.04,1.639,1.639,0,0,1-.075-.188.857.857,0,0,1-.038-.2l.147-.053a1.08,1.08,0,0,1,.138-.04c.047-.01.093-.017.143-.023s.107-.008.17-.008a1.326,1.326,0,0,1,.325.038.771.771,0,0,1,.257.117.553.553,0,0,1,.167.2.638.638,0,0,1,.06.283.807.807,0,0,1-.033.23,1.09,1.09,0,0,1-.093.215,2.43,2.43,0,0,1-.14.223c-.055.075-.113.157-.18.245l-.175.237h.7a.963.963,0,0,1,.02.193,1.039,1.039,0,0,1-.02.208H71.145l-.023-.048Zm2.795.088a.82.82,0,0,1-.385-.083.72.72,0,0,1-.265-.23,1.069,1.069,0,0,1-.157-.353,1.911,1.911,0,0,1,0-.889,1.035,1.035,0,0,1,.16-.355.724.724,0,0,1,.268-.233.841.841,0,0,1,.39-.085.817.817,0,0,1,.383.085.732.732,0,0,1,.266.233.969.969,0,0,1,.155.355,1.872,1.872,0,0,1,.052.445,1.767,1.767,0,0,1-.055.445,1.039,1.039,0,0,1-.158.353.722.722,0,0,1-.27.23.841.841,0,0,1-.386.083Zm0-.4a.289.289,0,0,0,.263-.175,1.608,1.608,0,0,0,0-1.079.288.288,0,0,0-.263-.173.3.3,0,0,0-.268.173,1.139,1.139,0,0,0-.1.54,1.116,1.116,0,0,0,.1.54A.3.3,0,0,0,73.922,37.986Z" transform="translate(-57.903 -35.946)" fill="#7b8596" fill-rule="evenodd"/>
        <path id="Path_105" data-name="Path 105" d="M79.384,37.283l.445-.8H79.1a1.117,1.117,0,0,1,0-.4h1.381l.033.055-.531.883H80a.564.564,0,0,1,.235.048.635.635,0,0,1,.177.132.625.625,0,0,1,.107.187.612.612,0,0,1,.038.217.862.862,0,0,1-.073.37.722.722,0,0,1-.2.268.841.841,0,0,1-.3.162,1.272,1.272,0,0,1-.381.055q-.1,0-.175,0c-.052,0-.1-.01-.15-.017s-.095-.022-.143-.037-.1-.03-.163-.05a.891.891,0,0,1,.04-.2.829.829,0,0,1,.077-.183c.083.027.163.05.237.067a1.075,1.075,0,0,0,.257.027.773.773,0,0,0,.2-.025.46.46,0,0,0,.163-.075.389.389,0,0,0,.112-.132.422.422,0,0,0,.04-.192.3.3,0,0,0-.035-.145.345.345,0,0,0-.1-.1.375.375,0,0,0-.14-.057.746.746,0,0,0-.165-.018c-.037,0-.075,0-.115,0a.517.517,0,0,0-.115.018l-.035-.048Zm2.424.991a.86.86,0,0,1-.383-.082.716.716,0,0,1-.265-.233A1.013,1.013,0,0,1,81,37.607a1.979,1.979,0,0,1,0-.891,1.082,1.082,0,0,1,.16-.355.742.742,0,0,1,.27-.232.918.918,0,0,1,.771,0,.779.779,0,0,1,.268.232,1.043,1.043,0,0,1,.155.355,1.97,1.97,0,0,1,.05.446,1.78,1.78,0,0,1-.053.445,1.018,1.018,0,0,1-.16.351.731.731,0,0,1-.27.233.887.887,0,0,1-.388.082Zm.007-.4a.291.291,0,0,0,.263-.173,1.179,1.179,0,0,0,.095-.541,1.166,1.166,0,0,0-.095-.54.288.288,0,0,0-.263-.173.3.3,0,0,0-.268.173,1.548,1.548,0,0,0,0,1.081A.3.3,0,0,0,81.814,37.877Z" transform="translate(-52.685 -36.018)" fill="#7b8596" fill-rule="evenodd"/>
        <path id="Path_106" data-name="Path 106" d="M86.906,37.933l.934-1.892a1.166,1.166,0,0,1,.217.048.618.618,0,0,1,.2.108l-.68,1.381h.471V37.05l.11-.012c.035,0,.072-.005.108-.005s.08,0,.118.005l.122.012v.528h.237a.975.975,0,0,1,.02.2c0,.035,0,.068,0,.1a.812.812,0,0,1-.015.1H88.5v.465l-.11.01c-.035,0-.072.005-.108.005s-.08,0-.12-.005l-.12-.01v-.465H86.934l-.028-.045Zm2.927.353a.862.862,0,0,1-.385-.082.748.748,0,0,1-.267-.233,1.093,1.093,0,0,1-.155-.351,1.872,1.872,0,0,1-.052-.445,1.792,1.792,0,0,1,.053-.446,1.049,1.049,0,0,1,.16-.355.767.767,0,0,1,.268-.232.829.829,0,0,1,.388-.085.813.813,0,0,1,.383.085.767.767,0,0,1,.268.232,1.014,1.014,0,0,1,.157.355,1.971,1.971,0,0,1,.048.446,1.872,1.872,0,0,1-.052.445,1.064,1.064,0,0,1-.16.351.736.736,0,0,1-.271.233.872.872,0,0,1-.385.082Zm0-.4a.291.291,0,0,0,.263-.173,1.182,1.182,0,0,0,.093-.541,1.169,1.169,0,0,0-.093-.54.289.289,0,0,0-.263-.175.3.3,0,0,0-.27.175,1.548,1.548,0,0,0,0,1.081A.3.3,0,0,0,89.838,37.89Z" transform="translate(-47.397 -36.021)" fill="#7b8596" fill-rule="evenodd"/>
        <path id="Path_107" data-name="Path 107" d="M95.272,36.08h1.183a.977.977,0,0,1,.022.2,1.043,1.043,0,0,1-.022.2h-.76l-.02.471c.04-.008.075-.015.107-.018a.868.868,0,0,1,.1-.005.892.892,0,0,1,.291.045.6.6,0,0,1,.228.133.607.607,0,0,1,.147.217.779.779,0,0,1,.052.3.861.861,0,0,1-.07.36.679.679,0,0,1-.2.262.87.87,0,0,1-.316.158,1.551,1.551,0,0,1-.418.053c-.03,0-.065,0-.108,0s-.088-.008-.138-.017a1.264,1.264,0,0,1-.158-.032c-.055-.013-.108-.028-.158-.045a.855.855,0,0,1,.043-.2c.022-.067.045-.132.072-.2q.117.04.22.065a1.126,1.126,0,0,0,.218.022.861.861,0,0,0,.247-.032.52.52,0,0,0,.163-.088.336.336,0,0,0,.09-.125.512.512,0,0,0,.025-.148.315.315,0,0,0-.108-.26.539.539,0,0,0-.355-.093.85.85,0,0,0-.185.018.658.658,0,0,0-.185.063l-.05-.04.05-1.261Zm2.565,2.194a.855.855,0,0,1-.383-.082.716.716,0,0,1-.265-.233,1.013,1.013,0,0,1-.157-.351,1.781,1.781,0,0,1-.052-.445,1.718,1.718,0,0,1,.053-.446,1.049,1.049,0,0,1,.16-.355.736.736,0,0,1,.268-.232.85.85,0,0,1,.388-.085.833.833,0,0,1,.383.085.75.75,0,0,1,.268.232.982.982,0,0,1,.155.355,1.879,1.879,0,0,1,.05.446,1.781,1.781,0,0,1-.052.445,1.049,1.049,0,0,1-.16.351.744.744,0,0,1-.27.233.887.887,0,0,1-.388.082Zm.007-.4a.291.291,0,0,0,.263-.173,1.2,1.2,0,0,0,.093-.541,1.192,1.192,0,0,0-.093-.54.288.288,0,0,0-.263-.173.3.3,0,0,0-.27.173,1.16,1.16,0,0,0-.1.54,1.125,1.125,0,0,0,.1.541A.3.3,0,0,0,97.844,37.877Z" transform="translate(-41.991 -36.018)" fill="#7b8596" fill-rule="evenodd"/>
        <path id="Path_108" data-name="Path 108" d="M104.34,36.029a.832.832,0,0,1,.027.107.47.47,0,0,1,.012.108.608.608,0,0,1-.028.175.933.933,0,0,0-.328.068.719.719,0,0,0-.243.157.863.863,0,0,0-.165.222.848.848,0,0,0-.087.267.422.422,0,0,1,.072-.085.428.428,0,0,1,.1-.077.458.458,0,0,1,.133-.055.62.62,0,0,1,.175-.022.782.782,0,0,1,.271.047.636.636,0,0,1,.225.142.653.653,0,0,1,.157.242.869.869,0,0,1,.057.336.793.793,0,0,1-.07.348.8.8,0,0,1-.187.253.751.751,0,0,1-.268.153.906.906,0,0,1-.311.052.807.807,0,0,1-.63-.242,1.055,1.055,0,0,1-.218-.725,1.877,1.877,0,0,1,.08-.563,1.315,1.315,0,0,1,.24-.46,1.2,1.2,0,0,1,.408-.315,1.563,1.563,0,0,1,.581-.133Zm-.47,2.054a.349.349,0,0,0,.255-.1.539.539,0,0,0,0-.623.341.341,0,0,0-.248-.093.355.355,0,0,0-.262.1.4.4,0,0,0-.1.293.474.474,0,0,0,.093.318.315.315,0,0,0,.253.112Zm1.949.383a.806.806,0,0,1-.381-.083.725.725,0,0,1-.267-.23,1.1,1.1,0,0,1-.157-.353,1.972,1.972,0,0,1,0-.889,1.1,1.1,0,0,1,.16-.355.716.716,0,0,1,.27-.233.918.918,0,0,1,.771,0,.737.737,0,0,1,.268.233,1.029,1.029,0,0,1,.155.355,1.874,1.874,0,0,1,.05.445,1.768,1.768,0,0,1-.053.445,1.071,1.071,0,0,1-.158.353.741.741,0,0,1-.271.23.838.838,0,0,1-.388.083Zm.007-.4a.29.29,0,0,0,.265-.175,1.608,1.608,0,0,0,0-1.079.288.288,0,0,0-.265-.173.3.3,0,0,0-.268.173,1.142,1.142,0,0,0-.1.54,1.119,1.119,0,0,0,.1.54A.3.3,0,0,0,105.826,38.069Z" transform="translate(-36.663 -36.029)" fill="#7b8596" fill-rule="evenodd"/>
      </g>
    </g>
  </g>
  <g id="Group_49" data-name="Group 49" transform="translate(38.459 53.683)">
    <path id="Path_109" data-name="Path 109" d="M46.706,53.676c.386,3.053,1.043,5.756.9,8.883l-.766,16.55L42.875,77.62c-.281-.333-.343-.385-.408-.7-.413-2.017-2.174-9.241-3.328-14.7-1.293-6.121-2.149-9.807.926-12.469C41.9,48.161,45.964,47.829,46.706,53.676Z" transform="translate(-13.188 -21.231)" fill="#b4d3d6" fill-rule="evenodd"/>
    <path id="Path_110" data-name="Path 110" d="M23.089,52.928H31.56L38.846,109l-11.09.6Z" transform="translate(-23.089 -18.452)" fill="#b8b8b8" fill-rule="evenodd"/>
    <g id="Group_46" data-name="Group 46" transform="translate(35.939 76.806)">
      <path id="Path_111" data-name="Path 111" d="M60.156,90.8c-2.84,9.971-8.052,25.411-7.933,29.614.12,4.309,10.155,6.053,9.8,9.443-.946.415-5.85.57-7.725.233-2.465-.441-3.693-1.479-5.816-1.589l-.147,1.208-3.669-.168L44.8,127.1c-.008-4.632,1.925-5.785,2.26-8A170.387,170.387,0,0,0,48.31,96.445l6.942-12.158,7.4-5.946C63.1,80.873,61.357,86.578,60.156,90.8Z" transform="translate(-44.664 -78.341)" fill="#f0c17d" fill-rule="evenodd"/>
      <path id="Path_112" data-name="Path 112" d="M59.111,108.724c1.9.926,3.051,2.1,2.918,3.311-.946.415-5.85.568-7.725.233-2.465-.441-3.693-1.479-5.816-1.589l-.147,1.208-3.669-.168.047-2.439a7.105,7.105,0,0,1,.611-4.171C46.821,107.484,55.489,109.679,59.111,108.724Z" transform="translate(-44.666 -60.522)" fill="#032747" fill-rule="evenodd"/>
    </g>
    <rect id="Rectangle_507" data-name="Rectangle 507" width="5.038" height="37.269" transform="translate(22.38 89.695)" fill="#9e9e9e"/>
    <path id="Rectangle_508" data-name="Rectangle 508" d="M2.336,0h36.31a2.337,2.337,0,0,1,2.337,2.337V6.592a2.336,2.336,0,0,1-2.336,2.336H2.336A2.336,2.336,0,0,1,0,6.592V2.336A2.336,2.336,0,0,1,2.336,0Z" transform="translate(4.407 82.217)" fill="#9e9e9e"/>
    <path id="Rectangle_509" data-name="Rectangle 509" d="M1.225,0H20.246A1.224,1.224,0,0,1,21.47,1.224V3.455a1.224,1.224,0,0,1-1.224,1.224H1.224A1.224,1.224,0,0,1,0,3.455V1.225A1.225,1.225,0,0,1,1.225,0Z" transform="translate(14.164 124.057)" fill="#b8b8b8"/>
    <g id="Group_47" data-name="Group 47" transform="translate(37.805 76.806)">
      <path id="Path_113" data-name="Path 113" d="M61.276,90.8c-2.838,9.971-8.052,25.411-7.933,29.614.122,4.309,10.155,6.053,9.8,9.443-.946.415-5.85.57-7.725.233-2.465-.441-3.693-1.479-5.816-1.589l-.145,1.208-3.671-.168.137-2.578c-.008-4.63,1.924-5.648,2.259-7.862a170.667,170.667,0,0,0,1.248-22.653l6.941-12.158,7.4-5.946C64.226,80.873,62.479,86.578,61.276,90.8Z" transform="translate(-45.785 -78.341)" fill="#ffdba7" fill-rule="evenodd"/>
      <path id="Path_114" data-name="Path 114" d="M60.23,108.724c1.9.926,3.051,2.1,2.918,3.311-.946.415-5.85.568-7.725.233-2.465-.441-3.693-1.479-5.816-1.589l-.145,1.208-3.669-.168.045-2.439a7.118,7.118,0,0,1,.611-4.171C47.941,107.484,56.611,109.679,60.23,108.724Z" transform="translate(-45.786 -60.522)" fill="#05345e" fill-rule="evenodd"/>
    </g>
    <path id="Path_115" data-name="Path 115" d="M47.227,70.058l-16.72.247C27.055,80.995,28.3,86.14,32.245,89.051c3.678,2.715,24.89,5.906,31.974,8.158C68.4,90.542,71.3,87.9,76.16,83.48a121.773,121.773,0,0,0-26.978-9.9Z" transform="translate(-19.493 -7.049)" fill="#05345e" fill-rule="evenodd"/>
    <path id="Path_116" data-name="Path 116" d="M35.32,70.318l-4.812-.112C27.055,80.9,28.3,86.041,32.245,88.953c3.678,2.715,24.89,5.906,31.974,8.158a54.372,54.372,0,0,1,5.1-7.011C54.81,82.988,42.977,78.854,38.226,77.646Z" transform="translate(-19.493 -6.95)" fill="#032747" fill-rule="evenodd"/>
    <path id="Path_117" data-name="Path 117" d="M43.574,47.794c-1.279,3.343-.821,7.662-.265,11.471L36.242,58.3l-.281-11.786-1.083-5.372,6.574,4.6Z" transform="translate(-15.242 -26.295)" fill="#f0c17d" fill-rule="evenodd"/>
    <path id="Path_118" data-name="Path 118" d="M50.762,73.276l-3.426,8.835,1.377,5.856L28.519,92.537c.939-3.1,2.327-6.453,2.4-10.648.183-10.82-1.874-22.415.9-26.539,2.45-3.649,6.877-6.6,8.432-9.454a10.877,10.877,0,0,0,5.485,3.383c2.227.638,4.033.548,4.73,1.436,1.447,1.847,1.481,7.55,2.522,10.247,1.457,3.773,2.259,3.978,2.28,5.971C55.3,70.339,53.587,71.2,50.762,73.276Z" transform="translate(-19.475 -23.132)" fill="#05345e" fill-rule="evenodd"/>
    <path id="Path_119" data-name="Path 119" d="M36.145,45.876l-1.527,1.942c2.09,2.33,4.307,3.638,6.748,5.622l.426-4.139A19.6,19.6,0,0,1,36.145,45.876Z" transform="translate(-15.415 -23.146)" fill="#dfe4e8" fill-rule="evenodd"/>
    <path id="Path_120" data-name="Path 120" d="M40.164,47.127c-.042.671-.19,1.294-1.208,1.4l1.786,3.858C40.652,50.067,40.943,49.364,40.164,47.127Z" transform="translate(-12.528 -22.313)" fill="#dfe4e8" fill-rule="evenodd"/>
    <path id="Path_121" data-name="Path 121" d="M39.066,55.767c-.017,3.076-.328,5.791-.278,8.923L38.95,74.4,32.119,79a1.241,1.241,0,0,1-.31-.745c-.147-2.057-.941-9.446-1.366-15.016C29.968,57,29.6,53.234,33,51,35.027,49.666,39.1,49.874,39.066,55.767Z" transform="translate(-18.396 -20.183)" fill="#d8ebed" fill-rule="evenodd"/>
    <path id="Path_122" data-name="Path 122" d="M47.05,54.661c1.238.365,2.225.486,2.64-.135a3.917,3.917,0,0,0,.4-2.192c.012-.178.233-.311.551-.691.625-.884-.5-1.139-1.164-1.427,1.191.027,1.776.093,1.846-1l-.371-.275a2.2,2.2,0,0,1,.032-1.274c.182-.608,1.461-.849,1.241-1.965a6.517,6.517,0,0,1-2.159-3.05c-.4-1.356.513-2.3-.366-4.9a7.066,7.066,0,0,0-4.519-4.5c-3.846-1.288-9.986-1.051-12.2,1.661-6.086,7.467,4.792,16.4,4.959,16.515C40.339,53.029,43.785,53.7,47.05,54.661Z" transform="translate(-17.732 -32.048)" fill="#ffdba7" fill-rule="evenodd"/>
    <path id="Path_123" data-name="Path 123" d="M49.113,35.4c-1.328-2.593-11.571-5.986-16.2.869-4.327,7.477-3.45,18.077-.576,23.068,1.376,2.4,11.686,3.515,15.164,4.167a15.874,15.874,0,0,1-3.564-3.26,9.1,9.1,0,0,0,.988.618c-2.9-5.417-4.609-7.485-2.808-12.461C45.117,45.261,56.144,38.736,49.113,35.4Z" transform="translate(-18.54 -32.229)" fill="#632404" fill-rule="evenodd"/>
    <g id="Group_48" data-name="Group 48" transform="translate(30.597 28.185)">
      <path id="Path_124" data-name="Path 124" d="M61.394,54.959c.884-1.4,1.359-3.15,2.833-4.462,1.146-1.021.426-1.871-.863-.958A19.732,19.732,0,0,0,60.106,52.7c-1.611,1.714-1.481,1.894-3.28,1.99-5.175.117-4.129.416-8.183,4.3l2.875,1.954c2.913-1.747,7.221-2.738,8.168-3.644A10.935,10.935,0,0,0,61.394,54.959Z" transform="translate(-36.677 -49.151)" fill="#ffdba7" fill-rule="evenodd"/>
      <path id="Path_125" data-name="Path 125" d="M54.176,54.014a49.925,49.925,0,0,1,5.024,2.6c-3.864,6.409-7.272,12.571-12.231,18.67a2.814,2.814,0,0,1-2.852,1.008,3.575,3.575,0,0,1-1.244-.393,2.966,2.966,0,0,1-1.4-2.219c-.112-.635.731-1.634,1.224-2.668a20.47,20.47,0,0,1,2.668-4.685C48.984,62.98,52.073,57.662,54.176,54.014Z" transform="translate(-41.459 -45.913)" fill="#b4d3d6" fill-rule="evenodd"/>
    </g>
    <path id="Path_126" data-name="Path 126" d="M74.323,62.795H41.609l-1.18,6.741H73.143Z" transform="translate(-11.547 -11.884)" fill="#fff9f0" fill-rule="evenodd"/>
    <path id="Path_127" data-name="Path 127" d="M46.842,71.43a6.968,6.968,0,0,0,1.957.936l2.907-.46.436-.415c.01-.318.233-2.435.453-3.928a.815.815,0,0,0,.2-1.511c-1.614,0-3.706-.268-4.9.338-1.409.765-1.034,1.089-2.873.928l-.27,3.659A6.7,6.7,0,0,1,46.842,71.43Z" transform="translate(-8.666 -9.753)" fill="#f0c17d" fill-rule="evenodd"/>
    <path id="Path_128" data-name="Path 128" d="M55.728,67.637a50.393,50.393,0,0,1,.193,5.653c-7.479-.228-14.521-.178-22.268-1.511a2.812,2.812,0,0,1-2.275-1.992,3.745,3.745,0,0,1-.268-1.279c-.037-2.239,2.523-3.228,4.136-3.934a3.248,3.248,0,0,1,1.9-.225C41.784,67.455,50.338,67.578,55.728,67.637Z" transform="translate(-17.75 -10.877)" fill="#d8ebed" fill-rule="evenodd"/>
  </g>
  <g id="Group_55" data-name="Group 55" transform="translate(0 57.77)">
    <path id="Path_129" data-name="Path 129" d="M23.461,56.176c.187,3.053.909,5.778.32,8.883L19.935,85.243l-3.866-1.487c-.26-.333-.318-.386-.361-.7-.281-2.017.428-12.877-.37-18.34-.893-6.12-1.509-9.806,1.739-12.467C19.014,50.661,23.1,50.329,23.461,56.176Z" transform="translate(9.735 -23.654)" fill="#accce8" fill-rule="evenodd"/>
    <path id="Path_130" data-name="Path 130" d="M0,55.428H8.471L15.758,111.5l-11.091.6Z" transform="translate(0 -20.874)" fill="#b8b8b8" fill-rule="evenodd"/>
    <g id="Group_50" data-name="Group 50" transform="translate(40.348 76.483)">
      <path id="Path_131" data-name="Path 131" d="M39.713,92.8c-2.84,9.971-8.052,25.411-7.933,29.612.12,4.311,10.155,6.055,9.8,9.444-.946.415-5.851.57-7.727.233-2.463-.441-3.693-1.481-5.815-1.589L27.9,131.7l-3.669-.167.137-2.442c-.01-4.631,1.922-5.786,2.259-8a170.362,170.362,0,0,0,1.246-22.651L34.81,86.286,42.168,80.6C42.62,83.133,40.914,88.578,39.713,92.8Z" transform="translate(-24.222 -80.601)" fill="#f0c17d" fill-rule="evenodd"/>
      <path id="Path_132" data-name="Path 132" d="M38.667,110.828c1.9.924,3.051,2.1,2.918,3.31-.946.415-5.851.57-7.727.233-2.463-.441-3.693-1.479-5.815-1.589l-.147,1.206-3.669-.167.047-2.439a7.111,7.111,0,0,1,.611-4.169C26.378,109.588,35.046,111.78,38.667,110.828Z" transform="translate(-24.223 -62.886)" fill="#032747" fill-rule="evenodd"/>
    </g>
    <path id="Path_133" data-name="Path 133" d="M38.776,92.881l-7.161,31.128-5.986-1.316c.966-6.388,1.324-17.381,1.3-24.165L33.6,84.966l7.589-4.491a2.734,2.734,0,0,1,.281,1.464C41.3,84.822,39.78,89.353,38.776,92.881Z" transform="translate(17.06 -4.201)" fill="#44515c" fill-rule="evenodd"/>
    <rect id="Rectangle_510" data-name="Rectangle 510" width="5.037" height="37.269" transform="translate(22.38 89.772)" fill="#9e9e9e"/>
    <rect id="Rectangle_511" data-name="Rectangle 511" width="40.982" height="8.928" rx="2.336" transform="translate(4.408 82.295)" fill="#9e9e9e"/>
    <path id="Rectangle_512" data-name="Rectangle 512" d="M1.225,0H20.246A1.224,1.224,0,0,1,21.47,1.224v2.23a1.224,1.224,0,0,1-1.224,1.224H1.224A1.224,1.224,0,0,1,0,3.454V1.225A1.225,1.225,0,0,1,1.225,0Z" transform="translate(14.164 124.134)" fill="#b8b8b8"/>
    <g id="Group_51" data-name="Group 51" transform="translate(37.806 78.535)">
      <path id="Path_134" data-name="Path 134" d="M38.187,92.638c-2.838,9.971-8.052,25.411-7.933,29.614.122,4.309,10.155,6.053,9.8,9.443-.946.415-5.851.57-7.725.233-2.465-.441-3.693-1.479-5.816-1.589l-.147,1.208-3.668-.168.135-2.578c-.008-4.631,1.924-5.648,2.259-7.862a170.665,170.665,0,0,0,1.248-22.653l6.941-12.158,6.6-4.294C40.337,84.366,39.387,88.417,38.187,92.638Z" transform="translate(-22.695 -81.833)" fill="#ffdba7" fill-rule="evenodd"/>
      <path id="Path_135" data-name="Path 135" d="M37.141,111.224c1.9.926,3.053,2.1,2.92,3.311-.948.415-5.853.568-7.727.233-2.465-.441-3.693-1.479-5.816-1.589l-.145,1.208-3.669-.168.045-2.439a7.118,7.118,0,0,1,.611-4.171C24.854,109.984,33.52,112.179,37.141,111.224Z" transform="translate(-22.697 -64.675)" fill="#05345e" fill-rule="evenodd"/>
    </g>
    <path id="Path_136" data-name="Path 136" d="M24.139,72.558,7.417,72.8C3.966,83.495,5.212,88.64,9.156,91.551c3.678,2.715,25.991.175,33.075,2.43,4.179-6.668,7.565-3.8,12.424-8.223-9.016-4.657-19.093-7.274-28.563-9.681Z" transform="translate(3.596 -9.471)" fill="#44515c" fill-rule="evenodd"/>
    <path id="Path_137" data-name="Path 137" d="M16.748,72.31l-9.331.66C3.966,83.66,5.212,88.807,9.156,91.716c3.678,2.715,26.982,1.389,34.066,3.643,1.059-.691,9.869-7.181,7.912-7.977-13.926-5.665-25.213-6.792-29.827-7.965Z" transform="translate(3.596 -9.636)" fill="#5e6c78" fill-rule="evenodd"/>
    <path id="Path_138" data-name="Path 138" d="M20.485,50.294c-1.279,3.343-.821,7.662-.265,11.471L13.153,60.8l-.281-11.786-1.083-5.372,6.574,4.6Z" transform="translate(7.847 -28.717)" fill="#f0c17d" fill-rule="evenodd"/>
    <path id="Path_139" data-name="Path 139" d="M27.672,75.776l-3.426,8.835,1.377,5.856L5.431,95.039c.939-3.1,2.327-6.454,2.4-10.65.182-10.82-1.874-22.415.894-26.539,2.45-3.649,6.877-6.6,8.432-9.454l6.2,10.545.3-6.911c1.754.381,3.13.436,3.718,1.184,1.447,1.846,1.482,7.55,2.523,10.247,1.456,3.773,2.257,3.978,2.279,5.971C32.211,72.839,30.5,73.7,27.672,75.776Z" transform="translate(3.615 -25.555)" fill="#c6def2" fill-rule="evenodd"/>
    <path id="Path_140" data-name="Path 140" d="M13.255,48.54l-2.024,1.615,4.324,9.194,1.859-4.34Z" transform="translate(7.476 -25.459)" fill="#e3effa" fill-rule="evenodd"/>
    <path id="Path_141" data-name="Path 141" d="M16.49,49.644l-.242,5.4,2.06.359Z" transform="translate(10.815 -24.724)" fill="#dfe4e8" fill-rule="evenodd"/>
    <path id="Path_142" data-name="Path 142" d="M15.716,58.789c-.018,3.076-.263,5.793-.28,8.925l-.06,11.143L9.041,81.414a1.255,1.255,0,0,1-.311-.745c-.145-2.057-.939-9.448-1.364-15.016-.475-6.236-.949-9.892,2.449-12.128C11.838,52.192,15.749,52.9,15.716,58.789Z" transform="translate(4.682 -22.521)" fill="#e3effa" fill-rule="evenodd"/>
    <path id="Path_143" data-name="Path 143" d="M23.96,57.161c1.238.365,2.225.486,2.64-.135a3.917,3.917,0,0,0,.4-2.192c.012-.178.233-.311.55-.691.626-.884-.5-1.139-1.163-1.427,1.191.027,1.776.093,1.846-1l-.371-.275a2.184,2.184,0,0,1,.032-1.274c.182-.608,1.461-.849,1.241-1.965a6.531,6.531,0,0,1-2.16-3.05c-.4-1.356.515-2.3-.365-4.9a7.066,7.066,0,0,0-4.519-4.5C18.247,34.47,12.108,34.707,9.9,37.419c-6.088,7.467,4.79,16.4,4.957,16.515C17.25,55.529,20.7,56.2,23.96,57.161Z" transform="translate(5.358 -34.47)" fill="#ffdba7" fill-rule="evenodd"/>
    <path id="Path_144" data-name="Path 144" d="M24.6,37.1c-.943-1.492-10.912-5.327-15.54,1.529-3.566,6.16-1.644,14.458,5.986,14.846,2.232-.683,2.067-4.964,4.466-9.409C20.705,41.85,21.5,38.982,24.6,37.1Z" transform="translate(4.876 -34.683)" fill="#632404" fill-rule="evenodd"/>
    <path id="Path_145" data-name="Path 145" d="M19.881,36.178c2.249.6,3.08,3.255,2.837,7.012-2.127.894-5.856.588-8.338.262C14.732,39.489,18.75,36.385,19.881,36.178Z" transform="translate(9.571 -33.688)" fill="#632404" fill-rule="evenodd"/>
    <g id="Group_52" data-name="Group 52" transform="translate(12.244 8.605)">
      <path id="Path_146" data-name="Path 146" d="M7.351,42.989C8,52.974,14.9,55.561,16.827,58.413c.383-1.024-.445-10.207,2.753-18.564l-9.143.551Z" transform="translate(-7.351 -39.849)" fill="#632404" fill-rule="evenodd"/>
      <path id="Path_147" data-name="Path 147" d="M22.7,72.855c3.953-13.752-9.364-16-11.381-28.551C11.6,62.613,20.379,59.983,22.7,72.855Z" transform="translate(-4.709 -36.884)" fill="#632404" fill-rule="evenodd"/>
    </g>
    <path id="Path_148" data-name="Path 148" d="M38.463,93.045,30.42,124.2,23.609,123.1l2.458-24.3,5.62-12.267,6.724-5.312C42.014,82.673,39.423,89.674,38.463,93.045Z" transform="translate(15.715 -3.704)" fill="#5e6c78" fill-rule="evenodd"/>
    <g id="Group_53" data-name="Group 53" transform="translate(37.051 66.766)">
      <path id="Path_149" data-name="Path 149" d="M30.317,77.354c.247.39,3.649,3.381,3.246,3.211-4.2-1.767-4.264-1.617-5.89-1.181-2.07.556-3.614-.563-5.015-1.907,0,0,.358-1.911.433-2.029a13.612,13.612,0,0,1,2.7-.371C25.933,75.133,30.408,77.33,30.317,77.354Z" transform="translate(-21.968 -74.565)" fill="#f0c17d" fill-rule="evenodd"/>
      <path id="Path_150" data-name="Path 150" d="M27.456,75.228a11.671,11.671,0,0,1,2.74.766,5.428,5.428,0,0,1,1.186,1.018c.466.425,1.123.876,1.969,1.647,1.656,1.511,2.753,2.3,2.533,2.72-.175.335-1.048.118-2.733-1.044L30.3,78.375c-.41-.047-.823-.223-1.308-.28l-1.676-.2-5.072-1.747.408-1.382C24.563,74.919,25.832,75,27.456,75.228Z" transform="translate(-22.244 -74.767)" fill="#f0c17d" fill-rule="evenodd"/>
    </g>
    <path id="Path_151" data-name="Path 151" d="M30.194,77.918l-2.319,4.322L16.849,75.6l.022-5.012,2.377-.944C23.4,74.161,25.462,75.34,30.194,77.918Z" transform="translate(11.216 -11.414)" fill="#accce8" fill-rule="evenodd"/>
    <g id="Group_54" data-name="Group 54" transform="translate(34.021 67.041)">
      <path id="Path_152" data-name="Path 152" d="M28.5,77.519c.247.391,3.649,3.383,3.246,3.211-4.2-1.766-4.264-1.616-5.888-1.181-2.072.556-3.616-.561-5.017-1.906,0,0,.358-1.912.435-2.03a13.7,13.7,0,0,1,2.7-.371C24.114,75.3,28.589,77.5,28.5,77.519Z" transform="translate(-20.149 -74.73)" fill="#ffdba7" fill-rule="evenodd"/>
      <path id="Path_153" data-name="Path 153" d="M25.637,75.4a11.512,11.512,0,0,1,2.74.766,5.383,5.383,0,0,1,1.186,1.018c.466.423,1.123.874,1.969,1.647,1.656,1.511,2.755,2.3,2.533,2.718-.175.336-1.048.12-2.732-1.043L28.478,78.54c-.408-.047-.821-.223-1.306-.278l-1.676-.2-5.072-1.746.408-1.384C22.744,75.085,24.013,75.162,25.637,75.4Z" transform="translate(-20.425 -74.932)" fill="#ffdba7" fill-rule="evenodd"/>
    </g>
    <path id="Path_154" data-name="Path 154" d="M31.583,79.525A37.762,37.762,0,0,1,29.55,83.99c-6.728-3.276-13.17-6.12-19.69-10.512A3.074,3.074,0,0,1,8.217,71.17a5.413,5.413,0,0,1,.665-1.717c.884-2.055,2.593-1.886,4.341-1.671l1.552.19A73.874,73.874,0,0,0,31.583,79.525Z" transform="translate(5.468 -12.732)" fill="#e3effa" fill-rule="evenodd"/>
  </g>
  <g id="Group_65" data-name="Group 65" transform="translate(130.885 20.343)">
    <g id="Group_56" data-name="Group 56" transform="translate(0 5.424)">
      <path id="Path_155" data-name="Path 155" d="M95.26,33.356c.453.381.415-.808.871-.441,1.194.961,1.954,1.221,2.457,1.914s.508,1.9.853,3.123c.227.806,1.659,2.089,2.034,2.863l-3.35,2.3c-.425-.783-.73-1.174-1.076-1.169-2.079.022-3.026-1.774-4.9-3.435-.2-.175.481.037.488-.416a2.487,2.487,0,0,1-1.053-1.909c-1.081-.971-.736-.816-.808-2.25Z" transform="translate(-70.462 -3.905)" fill="#ffdba7" fill-rule="evenodd"/>
      <path id="Path_156" data-name="Path 156" d="M95.532,39.309a28.25,28.25,0,0,1-3.02-.555c-.72-.638-.475-2.12-.591-2.627-1.081-.971-1.039-1-1.109-2.434l4.211-.878c.758,1.454,1.1,1.294,1.8,2.064.568.625,1.794,2.535,1.566,3.358-.07.258-.107.16-.345.338C97.068,39.3,97.153,39.738,95.532,39.309Z" transform="translate(-70.436 -3.924)" fill="#f0c17d" fill-rule="evenodd"/>
      <path id="Path_157" data-name="Path 157" d="M96.31,36.044l-.476-.06a3.436,3.436,0,0,0-1-1.3c-.678-.576-1.5-1.309-1.581-2.04C94,33.924,94.936,34.3,95.6,35.028A5.545,5.545,0,0,1,96.31,36.044Z" transform="translate(-68.81 -4.04)" fill="#eebe69" fill-rule="evenodd"/>
      <path id="Path_158" data-name="Path 158" d="M98.362,36.6c-1.349,1.146-2.638,2.222-4.043,3.3l1.732,1.479,4.427-2.3Z" transform="translate(-68.102 -1.404)" fill="#bfd8db" fill-rule="evenodd"/>
      <path id="Path_159" data-name="Path 159" d="M93.344,32.206c.451.381.881.766,1.338,1.133,1.2.963,1.954,1.221,2.457,1.914a3.766,3.766,0,0,1,.515,1.5L97.568,39.5l-1.126-.526L95.6,36.648a4.223,4.223,0,0,0-1.056-1.467C93.569,34.355,92.3,33.209,93.344,32.206Z" transform="translate(-69.012 -4.33)" fill="#ffdba7" fill-rule="evenodd"/>
      <path id="Path_160" data-name="Path 160" d="M105.271,48.953c.4.508.385,1.651-.261,1.651h0c-.648,0-1.273.265-1.649-.265L78.579,15.47Z" transform="translate(-78.579 -15.47)" fill="#8c6c4a" fill-rule="evenodd"/>
      <path id="Path_161" data-name="Path 161" d="M93.428,39.093a2.069,2.069,0,0,1-.953-.5,1.117,1.117,0,0,1-.415-1.128c.776-.2,1.626-.4,2.407-.595.3-.077.578.345.51.7-.058.313-.766.575-1.281.78-.308.122-.38.17-.336.316a1.294,1.294,0,0,1,.068.425Zm-1.414-1.661.142-.058.252-.073,1.669-.415c.55-.11,1.324-.242,1.547-.565a.538.538,0,0,0-.007-.7A.508.508,0,0,0,95,35.34a29.4,29.4,0,0,1-3.5.838c-.26.192-.148.441-.063.675s.192.583.575.58Zm-.48-1.328a.558.558,0,0,1-.523-.395,1.1,1.1,0,0,1-.063-.8.891.891,0,0,1,.295-.262c.275-.072.665-.13,1.143-.217a13.5,13.5,0,0,1,2.277-.3c.653.05.974.884.346,1.163-1.281.343-2.314.58-3.475.81Zm-.9-1.772c.242.245,2.122-.065,2.738-.218a.573.573,0,0,0,.461-.765c-.177-.606-.894-.585-1.676-.515-.52.048-1.069.095-1.464.142C90.14,33.045,90.327,34.017,90.638,34.332Z" transform="translate(-70.75 -3.934)" fill="#ffdba7" fill-rule="evenodd"/>
    </g>
    <g id="Group_57" data-name="Group 57" transform="translate(25.778 31.967)">
      <path id="Path_162" data-name="Path 162" d="M111.937,31.406c-1.048-.053-1.874,2.427-2.8,5.583a131.142,131.142,0,0,1-5.53,16.183l.012,8.7c.336,1.124.207,1.877.5,2.345.6.963,5.442-5.31,6.131-6.448,2.207-3.644,3.626-7.732,5.532-11.759C114.081,38.722,116.216,37.554,111.937,31.406Z" transform="translate(-87.699 -31.405)" fill="#44515c" fill-rule="evenodd"/>
      <path id="Path_163" data-name="Path 163" d="M110.155,49.857c-2.642-3.463-7.844-9.864-10.723-13.135-1.2,1.223-3.066,3.493-5.377,4.764,4.809,7.276,8.861,13.67,15.341,18.809,1.111.881,1.812.276,2.034-.013C112.362,59.06,110.565,51.991,110.155,49.857Z" transform="translate(-94.055 -27.867)" fill="#44515c" fill-rule="evenodd"/>
    </g>
    <g id="Group_64" data-name="Group 64" transform="translate(49.222)">
      <path id="Path_164" data-name="Path 164" d="M116.873,106.7l-2.578,3.351-3.861,3.744c-.4.31-.508,2.31.2,2.2l3.983.33a7.077,7.077,0,0,0,3.774-1.043c.835-.455,1.651-1.219,2.692-1.931l.451.914,3.754-1.422.09-2.793c.473-3.007-.616-3.5-.994-5.588l-6.558.153Z" transform="translate(-106.807 49.19)" fill="#1f1c1d" fill-rule="evenodd"/>
      <path id="Path_165" data-name="Path 165" d="M124.6,105.054l.153,7.873,3.757,4.369,6.147-.864.254-5.893-3.3-6.45Z" transform="translate(-97.168 48.944)" fill="#1f1c1d" fill-rule="evenodd"/>
      <path id="Path_166" data-name="Path 166" d="M131.19,55.545l3.645,19.3,2.183,63.189-4.6,1.321-5.229-.61L121.851,78.7l-1.166-.607-1.776-22.452Z" transform="translate(-100.956 16.63)" fill="#44515c" fill-rule="evenodd"/>
      <path id="Path_167" data-name="Path 167" d="M113.9,55.545l-3.25,17.269c3.391,21.693,3.828,44.281,5.027,66.238l4.772.448,5.285-.245-.28-60.145.738-1.013V55.645Z" transform="translate(-106.454 16.63)" fill="#44515c" fill-rule="evenodd"/>
      <path id="Path_168" data-name="Path 168" d="M115.04,78.058l2.438,61.361,5.332-.2-.281-60.144.738-1.013V55.606l-5.389.556Z" transform="translate(-103.531 16.67)" fill="#29343d" fill-rule="evenodd"/>
      <path id="Path_169" data-name="Path 169" d="M128.713,55.545l3.645,19.3,2.183,63.189L130.1,139.3,126.079,76.47,122.629,55.6Z" transform="translate(-98.479 16.63)" fill="#29343d" fill-rule="evenodd"/>
      <g id="Group_59" data-name="Group 59" transform="translate(10.81)">
        <g id="Group_58" data-name="Group 58" transform="translate(0 2.901)">
          <rect id="Rectangle_513" data-name="Rectangle 513" width="9.804" height="7.923" transform="translate(3.322 16.949)" fill="#f0c17d"/>
          <path id="Path_170" data-name="Path 170" d="M122.752,34.674a.616.616,0,0,1-.078,0,4.788,4.788,0,0,1-2.007-.237c-.516-.22-.766-.728-1.476-1.411-.6-.58-1.687-1.174-1.952-1.807a10.916,10.916,0,0,1-.381-2.732c-.561.308-1.159-1.3-1.279-1.822-.175-.775-.735-2.1-.908-2.982-.1-.508-.042-.909.13-1.036.365-.272.738-.123,1.281.613.033-.625.073-1.271.055-1.954a16.93,16.93,0,0,1,.082-3.243,3.822,3.822,0,0,1,1.254-2.327h0v0a6.591,6.591,0,0,1,1.381-.928l.017-.007.1-.048.055-.027a.853.853,0,0,1,.08-.037c.027-.01.052-.023.078-.035s.057-.025.085-.037.048-.022.075-.033a1.046,1.046,0,0,1,.108-.042l.052-.022c.052-.022.108-.04.162-.058l0,0a9.005,9.005,0,0,1,4.322-.41A7.335,7.335,0,0,1,127.8,15.73a3.808,3.808,0,0,1,1.249,2.315,16.882,16.882,0,0,1,.088,3.231c-.018.69.025,1.336.062,1.964.531-.716.9-.858,1.263-.59.172.127.232.528.13,1.036-.173.886-.733,2.207-.906,2.982-.12.52-.706,2.094-1.261,1.832a10.459,10.459,0,0,1-.368,2.663c-.263.636-1.339,1.236-1.939,1.824-.708.693-.956,1.2-1.469,1.427A4.453,4.453,0,0,1,122.752,34.674Z" transform="translate(-114.62 -13.955)" fill="#ffdba7" fill-rule="evenodd"/>
        </g>
        <path id="Path_171" data-name="Path 171" d="M117.838,18.256c-.46.55-1.622,4.326-1.467,7.933-1.554-5.638-2.39-9.666.983-12.2,4.431-3.328,9.777-1.189,10.209.088,3.545,1.243,2.124,6.854,1.146,11.321a15.366,15.366,0,0,0-1.626-6.974c-.268-.258-1.417,1.229-1.682,1.213C122.778,19.468,121.863,18.9,117.838,18.256Z" transform="translate(-114.358 -12.213)" fill="#632404" fill-rule="evenodd"/>
      </g>
      <path id="Path_172" data-name="Path 172" d="M116.612,28.006l6.245.776,6.323-.823L128.6,77.55H117.261l-2.939-40.843Z" transform="translate(-104.009 -1.732)" fill="#bfd8db" fill-rule="evenodd"/>
      <g id="Group_60" data-name="Group 60" transform="translate(12.465 23.998)">
        <path id="Path_173" data-name="Path 173" d="M124.594,26.621a2.792,2.792,0,0,0,1.218,2.149L122.691,34.1l-3.3-4.622C121.028,28.575,123.955,27.447,124.594,26.621Z" transform="translate(-113.103 -26.621)" fill="#d8ebed" fill-rule="evenodd"/>
        <path id="Path_174" data-name="Path 174" d="M116.828,26.621a2.794,2.794,0,0,1-1.214,2.149l3.121,5.332,3.3-4.622C120.4,28.575,117.47,27.447,116.828,26.621Z" transform="translate(-115.614 -26.621)" fill="#d8ebed" fill-rule="evenodd"/>
      </g>
      <path id="Path_175" data-name="Path 175" d="M120.6,28.555l2.115,3.12-.054.792-1.744,1.77,1.955,3.146-2.443,25.31-.021-.337-.02.337-2.443-25.31,1.955-3.146-1.745-1.77-.052-.792,2.115-3.12.19,0Z" transform="translate(-101.594 -1.339)" fill="#749eb8" fill-rule="evenodd"/>
      <path id="Path_176" data-name="Path 176" d="M108.821,33.605c-1.3.518-.421,1.6-.1,2.938,2.867,11.956,4.117,19.393,4.67,26.672.516,6.779-.4,13.57-1.6,25.353l12.756.1.775-23.306a22.135,22.135,0,0,0-.187-3.646l-4.416-33.713C118.06,30.446,116.018,30.752,108.821,33.605Z" transform="translate(-108.131 -1.701)" fill="#44515c" fill-rule="evenodd"/>
      <path id="Path_177" data-name="Path 177" d="M137.806,33.825c1.3.518.375,1.592.1,2.94-1.427,7.039-4.431,17.926-4.825,25.9-.366,7.319.676,18.1,1.073,25.6H120.891l-.473-22.9a24.124,24.124,0,0,1,.188-3.646l4.416-33.713C127.687,30.446,130.612,30.972,137.806,33.825Z" transform="translate(-99.955 -1.701)" fill="#29343d" fill-rule="evenodd"/>
      <g id="Group_63" data-name="Group 63" transform="translate(29.645 32.404)">
        <g id="Group_61" data-name="Group 61" transform="translate(0 25.079)">
          <path id="Path_178" data-name="Path 178" d="M133.939,50.087l-6.972-3.362.423,10.791,2.4,11.949,5.586.989Z" transform="translate(-125.237 -46.725)" fill="#632404" fill-rule="evenodd"/>
          <path id="Path_179" data-name="Path 179" d="M125.928,47.071l1.731-.346,2.819,22.74-1.631-.2Z" transform="translate(-125.928 -46.725)" fill="#451903" fill-rule="evenodd"/>
        </g>
        <g id="Group_62" data-name="Group 62" transform="translate(2.996 40.141)">
          <path id="Path_180" data-name="Path 180" d="M134.683,64.83c-.23.858-.293,1.379-1.189,1.226a11.229,11.229,0,0,0-1.721-.2,14.1,14.1,0,0,0-2.459.28l-1.128-1.173-.46-2.092,1.494.461.207.9,2.4-.33c.175-2.5-.675-3.235-.506-4.591a5.95,5.95,0,0,1,1.437-3.283l2.164-.253,1.194,1.124C136.089,60.2,135.534,61.652,134.683,64.83Z" transform="translate(-127.727 -55.767)" fill="#ffdba7" fill-rule="evenodd"/>
          <path id="Path_181" data-name="Path 181" d="M131.686,56.387c-.821.556-1.347.738-1.7,1.384a4.184,4.184,0,0,0-.356,1.547,20.07,20.07,0,0,0-.7,2.107c-.093.658.383.986.833.851.376-.115.695-.565,1.016-1.271l.406-.886.8-1.657Z" transform="translate(-126.932 -55.354)" fill="#ffdba7" fill-rule="evenodd"/>
        </g>
        <path id="Path_182" data-name="Path 182" d="M132.8,31.668c.986-.033,1.909,3.216,2.26,4.727l4.7,20.121c.628,2.477.616,2.728-.03,5.738L136.2,75.993c-.217-2.852-3.028-3.463-5.272-2.792l1.449-11.631c.238-2.394.311-2.212-.495-4.476L127.8,46.139C128.382,43.221,129.434,31.738,132.8,31.668Z" transform="translate(-124.684 -31.668)" fill="#29343d" fill-rule="evenodd"/>
      </g>
    </g>
  </g>
</svg>
