<svg xmlns="http://www.w3.org/2000/svg" width="107.355" height="119.74" viewBox="0 0 107.355 119.74">
  <g id="ceo" transform="translate(0 -8.26)">
    <path id="Path_398" data-name="Path 398" d="M110.194,60.911,104,67.1V56.782a24.768,24.768,0,0,1,24.774-24.774H145.29v8.258a12.384,12.384,0,0,1,12.387,12.387V67.1l-6.194-6.194a57.459,57.459,0,0,1-20.645,4.129A57.46,57.46,0,0,1,110.194,60.911Zm0,0" transform="translate(-77.161 -23.748)" fill="#965353"/>
    <path id="Path_399" data-name="Path 399" d="M246.194,46.459a6.2,6.2,0,0,1,6.194,6.194v8.258l6.194,6.194V52.653a12.384,12.384,0,0,0-12.387-12.387V32.008H240v8.258A6.193,6.193,0,0,0,246.194,46.459Zm0,0" transform="translate(-178.065 -23.748)" fill="#844747"/>
    <path id="Path_400" data-name="Path 400" d="M157.677,158.457a26.839,26.839,0,1,1-53.677,0V150.2l6.194-6.194a57.46,57.46,0,0,0,20.645,4.129,57.46,57.46,0,0,0,20.645-4.129l6.194,6.194Zm0,0" transform="translate(-77.161 -106.845)" fill="#eac6bb"/>
    <path id="Path_401" data-name="Path 401" d="M219.73,144.008l-.006,0v14.448a26.749,26.749,0,0,1-23.74,26.649,27.181,27.181,0,0,0,3.1.19,26.8,26.8,0,0,0,26.839-26.839V150.2Zm0,0" transform="translate(-145.408 -106.845)" fill="#d3b1a9"/>
    <path id="Path_402" data-name="Path 402" d="M86.493,320l6.216,10.364-4.191,2.065,10.341,12.346H72V334.452A14.441,14.441,0,0,1,86.452,320Zm0,0" transform="translate(-53.419 -237.419)"/>
    <path id="Path_403" data-name="Path 403" d="M136.418,320.02l6.172,24.754h-2.064l-10.343-12.346,4.191-2.064L128.16,320h8.217Zm0,0" transform="translate(-95.087 -237.419)" fill="#656d78"/>
    <path id="Path_404" data-name="Path 404" d="M170.483,327.944v.021L168.4,344.833h-2.065l-6.172-24.754,7.226,4.109Zm0,0" transform="translate(-118.828 -237.478)" fill="#e6e9ed"/>
    <path id="Path_405" data-name="Path 405" d="M172.387,295.334a26.909,26.909,0,0,0,12.387-3.014v7.143l-7.206,4.129-5.181-2.065-5.12,2.065-7.226-4.109-.041-.02V292.32a26.909,26.909,0,0,0,12.387,3.014Zm0,0" transform="translate(-118.71 -216.883)" fill="#f5f7fa"/>
    <path id="Path_406" data-name="Path 406" d="M198.293,350.4l2.064,16.929h-8.279l2.086-16.867Zm0,0" transform="translate(-142.509 -259.973)" fill="#da4453"/>
    <path id="Path_407" data-name="Path 407" d="M226.441,320l-6.152,24.774h-2.064l-2.065-16.929,3.076-3.716Zm0,0" transform="translate(-160.377 -237.419)" fill="#e6e9ed"/>
    <path id="Path_408" data-name="Path 408" d="M240.377,330.364l4.17,2.065-10.323,12.346H232.16L238.312,320h8.258Zm0,0" transform="translate(-172.248 -237.419)" fill="#656d78"/>
    <path id="Path_409" data-name="Path 409" d="M252.506,320a14.441,14.441,0,0,1,14.452,14.452v10.323h-26.8l10.323-12.346-4.17-2.065Zm0,0" transform="translate(-178.183 -237.419)"/>
    <path id="Path_410" data-name="Path 410" d="M380.375,456l-12.391,8.258h0V456Zm0,0" transform="translate(-273.021 -338.323)" fill="#545c66"/>
    <path id="Path_411" data-name="Path 411" d="M12.387,456v8.258h0L0,456Zm0,0" transform="translate(0 -338.323)" fill="#545c66"/>
    <path id="Path_412" data-name="Path 412" d="M130.581,464.258v2.065H48V456h82.581Zm0,0" transform="translate(-35.613 -338.323)" fill="#965353"/>
    <g id="Group_141" data-name="Group 141" transform="translate(6.195 77.249)">
      <path id="Path_413" data-name="Path 413" d="M26.07,310.866a2.065,2.065,0,0,1-1.46-3.524l7.4-7.4a2.064,2.064,0,1,1,2.919,2.919l-7.4,7.4A2.06,2.06,0,0,1,26.07,310.866Zm0,0" transform="translate(-24.005 -299.341)" fill="#b4b9bf"/>
      <path id="Path_414" data-name="Path 414" d="M26.072,352.779a2.063,2.063,0,0,1-2.065-2.065V330.065a2.065,2.065,0,0,1,4.129,0v20.649A2.062,2.062,0,0,1,26.072,352.779Zm0,0" transform="translate(-24.007 -320.604)" fill="#b4b9bf"/>
      <path id="Path_415" data-name="Path 415" d="M356.786,310.866a2.06,2.06,0,0,1-1.46-.6l-7.4-7.4a2.064,2.064,0,1,1,2.919-2.919l7.4,7.4a2.065,2.065,0,0,1-1.46,3.524Zm0,0" transform="translate(-263.882 -299.341)" fill="#b4b9bf"/>
      <path id="Path_416" data-name="Path 416" d="M378.073,352.779a2.063,2.063,0,0,1-2.065-2.065V330.065a2.065,2.065,0,0,1,4.129,0v20.649A2.062,2.062,0,0,1,378.073,352.779Zm0,0" transform="translate(-285.169 -320.604)" fill="#b4b9bf"/>
    </g>
    <path id="Path_418" data-name="Path 418" d="M195.349,333.822l.037-.041,3.076-3.716L193.281,328l-5.12,2.065,3.1,3.757Zm0,0" transform="translate(-139.603 -243.355)" fill="#ed5565"/>
    <path id="Path_419" data-name="Path 419" d="M105.29,416H2.065A2.071,2.071,0,0,0,0,418.065v8.258H107.355v-8.258A2.071,2.071,0,0,0,105.29,416Zm0,0" transform="translate(0 -308.645)" fill="#656d78"/>
    <path id="Path_420" data-name="Path 420" d="M337.1,289.162a4.112,4.112,0,0,1-5.823,0L329.21,287.1a4.124,4.124,0,1,1,5.823-5.843l2.065,2.065A4.1,4.1,0,0,1,337.1,289.162Zm0,0" transform="translate(-243.345 -207.777)" fill="#656d78"/>
    <path id="Path_421" data-name="Path 421" d="M57.081,281.256a4.1,4.1,0,0,1,0,5.843l-2.065,2.065a4.124,4.124,0,0,1-5.823-5.843l2.065-2.064A4.114,4.114,0,0,1,57.081,281.256Zm0,0" transform="translate(-35.591 -207.778)" fill="#656d78"/>
  </g>
</svg>
