<svg height="512pt" viewBox="-31 0 512 512" width="512pt" xmlns="http://www.w3.org/2000/svg"><path d="m375 90h-30v121h-60v-121h-30l60-90zm0 0" fill="#ff7816"/><path d="m375 90h-30v121h-30v-211zm0 0" fill="#ff4b00"/><path d="m135 90h-30v121h-60v-121h-30l60-90zm0 0" fill="#ff7816"/><path d="m135 90h-30v121h-30v-211zm0 0" fill="#ff4b00"/><path d="m255 90h-30v121h-60v-121h-30l60-90zm0 0" fill="#ff7816"/><path d="m384.300781 181h-384.300781v15c0 53.101562 21.898438 104.097656 60 140.699219v175.300781h210v-91h120v-90h60zm0 0" fill="#fed2a4"/><path d="m255 90h-30v121h-30v-211zm0 0" fill="#ff4b00"/><path d="m450 331h-60v90h-120v91h-75v-331h189.300781zm0 0" fill="#ffbd86"/></svg>